<svg width="79" height="92" viewBox="0 0 79 92" fill="none" xmlns="http://www.w3.org/2000/svg">
<path d="M49.5988 43.4826L51.7854 43.4003L54.8082 43.6557L55.5471 43.5735L62.2041 44.0324L62.5671 44.1342L62.768 44.2857L62.8674 45.0152L62.9819 45.1711L63.1828 45.3031L68.0745 47.4853L68.1545 47.8381L68.336 49.5786L68.5412 50.0527L68.9021 50.4727L69.0576 50.7281L69.1203 51.0593L68.9863 51.2109L68.6709 51.2174L68.0573 51.1113L67.4112 51.2044L66.938 51.5356L66.7825 51.9967L67.0893 52.4686L67.2254 52.5336L67.5495 52.6202L67.6705 52.6981L67.7483 52.8496L67.8196 53.2112L67.9082 53.3822L68.0357 53.4449L68.3598 53.4276L68.4915 53.4861L68.5996 53.6116L68.6428 53.6917L68.7335 53.9602L68.8761 54.1593L68.9345 54.3022L68.9194 54.4862L68.7962 54.6399L68.6082 54.7785L68.4699 54.917L68.4915 55.0685L68.9669 55.5145L69.1527 55.7613L69.2262 56.0838L68.9194 56.6965L69.1311 56.9043L69.762 57.2117L69.896 57.3914L69.9867 57.6815L70.2114 57.7659L70.7754 57.7702L71.039 57.8914L71.1491 58.0819L71.1686 58.3417L71.1621 58.6643L71.255 58.9176L71.4819 59.1449L71.7671 59.331L72.2986 59.5908L72.3915 59.6579L72.5168 59.7726L72.8625 60.2294L73.0116 60.3485L73.2471 60.5823L73.299 60.6754L73.3012 61.0088L73.2752 61.0975L73.2018 61.2599L73.0829 61.4677L73.0008 61.5673L72.9684 61.6733L73.0095 61.8942L73.0937 62.0479L73.3444 62.2795L73.4394 62.4505L73.6339 62.6064L73.6771 62.6908L73.6901 62.8142L73.783 63.2775L73.837 63.4355L73.8392 63.5481L73.783 63.6996L73.7549 63.8771L73.6296 64.1672L73.5907 64.3339L73.5928 64.5222L73.6598 64.8513L73.6771 65.0201L73.7225 65.2366L74.0725 65.9207L74.4657 66.3493L75.4877 66.9251L75.9199 67.3061L76.1338 67.5551L76.1964 67.6828L76.2029 67.8452L76.1208 67.9881L75.868 68.0876L75.8162 68.2045L75.8637 68.3561L75.9696 68.4665L76.0754 68.5531L76.123 68.6397L76.1165 68.7587L76.0171 69.222L75.9782 69.7047L75.9199 69.8584L75.5979 70.0793L75.5417 70.1269L75.4942 70.2048L75.3883 70.3195L75.2825 70.4732L75.2349 70.6572L75.3084 70.7698L75.4791 70.798L75.6735 70.7958L75.8162 70.8218L76.0754 71.1357L76.1402 71.521L76.1662 71.9302L76.3066 72.3177L76.5875 72.2181L76.8209 72.3696L76.9332 72.638L76.8403 72.8913L76.7517 73.0299L76.7344 73.1901L76.7971 73.3221L76.9375 73.3784L77.4431 73.3459L77.5749 73.3784L77.7953 73.6771L77.6657 73.9824L77.4172 74.2876L77.3027 74.5496L77.0456 74.8461L76.9915 74.9284L76.9786 74.9933L76.9721 75.0864L76.9915 75.2856L77.0326 75.4176L77.0931 75.5324L77.3653 75.8333L77.4755 75.9956L77.6289 76.2857L77.6829 76.4871L77.7651 77.4526L77.8752 77.9137L78.0287 79.0242L78.0956 79.245L78.2555 79.639L78.2339 79.7905L78.1064 80.2906L78.0416 80.9314L78.0524 81.2453L78.1064 81.4531L78.208 81.6479L78.3117 81.8449L78.5018 81.964L78.7244 82.1588L78.8216 82.4078L78.517 83.0334L78.4521 83.33L78.3722 83.5746L78.154 83.737L77.9898 83.7456L77.8666 83.6915L77.7413 83.6612L77.5749 83.737L77.5274 83.8474L77.3135 84.7414L76.5832 85.7546L76.5853 85.8455L76.7042 85.9883L76.8295 86.0035L76.9526 85.9191L77.0456 85.9104L77.0823 86.155L77.0499 86.3304L77.0023 86.4733L77.0067 86.6183L77.1298 86.7958L77.294 86.9798L77.3459 87.1119L77.2789 87.2071L77.0823 87.2829L76.7798 87.2418L76.3952 87.1422L76.0625 87.179L75.9199 87.5492L75.2349 88.4692L75.088 88.5839L74.9173 88.6857L74.7509 88.7615L74.6105 88.7896L74.4917 88.8567L74.2281 89.1511L74.1222 89.2182H73.6577H73.2515L72.8539 89.1316L72.6832 89.1663L72.6141 89.3784L72.5622 89.7767L72.4326 90.2075L72.2468 90.6167L72.0329 90.9414L71.8384 91.1319L71.6612 91.2228L71.2593 91.3506L71.0476 91.4718L70.8877 91.619L70.5831 92L70.1531 91.7034L69.8765 91.3137L69.4206 90.2898L69.2499 90.0863L68.807 89.8677L68.5931 89.7075L67.9687 88.9714L67.7677 88.7918L67.4868 88.6878L66.3633 88.6835L66.1645 88.6186L66.0781 88.4584L66.0241 88.2809L65.929 88.1488L65.7951 88.1207L65.4796 88.1618L65.3392 88.1488L64.3539 87.6487L64.1767 87.6574L64.0363 87.4214L62.7593 86.5339L62.4979 86.5425L62.2624 86.7179L61.8627 87.1379L61.692 87.2634L61.5127 87.3543L61.3528 87.3803L61.1734 87.3262L61.0978 87.2374L61.0546 87.114L60.966 86.9625L60.0564 85.9364L59.7193 85.4623L59.5465 85.2891L59.2245 85.1268L56.0959 84.512L56.0224 84.4383L55.9879 84.3128L55.8993 84.2478L55.7869 84.1959L55.6854 84.1158L55.4823 84.0552L54.7606 84.0357L54.4668 83.9599L51.7487 81.8882L51.2993 81.7757L51.161 81.6739L50.8779 81.3903L50.7397 81.3037L50.6532 81.2864L50.3853 81.2821L50.1044 81.1803L49.5751 80.8275L49.2423 80.7106L48.8361 80.4205L48.2463 80.217L48.1123 80.1088L48.0345 80.0027L47.9287 79.9204L47.7148 79.8879L47.5808 79.8382L47.3971 79.6173L46.9304 79.4442L46.6971 79.1541L46.4097 78.5999L46.2758 78.4484L45.7248 77.9613L45.3813 77.8032L45.3316 77.6799L45.297 77.5391L45.2473 77.4309L45.1609 77.353L44.8519 77.2166L44.53 77.0283L44.3766 76.9092L44.2231 76.7382L44.1108 76.6559L43.8494 76.6018L43.6074 76.4546L43.253 76.407L43.1104 76.3572L43.0089 76.2619L42.7582 75.9177L42.2159 75.357L37.1146 71.9583L36.8575 71.8955L36.5658 71.9258L35.9003 72.164L35.5611 72.2419L34.5002 72.2765L33.3897 72.1055L32.9424 72.1293L32.8106 72.1055L32.6594 72.0189L32.3806 71.7678L32.2294 71.6725L32.0998 71.6509L31.5963 71.6725L30.7191 71.4994L30.2546 71.1617L29.9953 71.0361L29.4875 71.0123L29.4054 70.982L29.1786 70.4862L29.1634 70.3975L29.0338 70.3693L28.7875 70.2308L28.6319 70.1767L28.4677 70.1615L27.8173 70.1983L27.6791 70.1615L27.3895 69.9082L27.2556 69.8649L26.4259 69.8844V69.8823L26.3568 67.8906L26.3676 67.7867L26.4108 67.6871L26.5966 67.3603L26.6506 67.1828L26.7478 66.6307L26.8278 66.4943L26.9553 66.3623L27.1908 66.2389L27.3852 66.1761L28.405 66.0094L28.9106 65.7908L29.3536 65.5462L29.5459 65.4661L29.7403 65.4249L34.3295 65.1673L34.8243 65.0721L35.1592 64.94L36.5701 64.178L36.6825 64.1022L36.689 64.0914L36.8208 62.7146L36.9504 62.1085L37.1276 61.5543L37.7671 60.2467L37.9227 59.7965L37.9681 59.5345L37.927 59.3635L37.8103 59.0864L37.7801 58.9782L37.7758 58.8764L38.1625 57.8243L38.236 57.5061L38.2662 57.2507L38.1647 56.519L38.1971 55.8132L38.1431 55.0361L38.1712 54.8586L38.303 54.3715L38.3375 54.168V53.7718L38.3851 53.5229L38.519 53.2198L41.2609 49.1132L41.3495 48.9205L41.3776 48.6846L41.3754 48.6218L41.289 47.9096L41.3149 47.7342L41.4013 47.6065L41.6109 47.4982L41.8421 47.4614L42.6567 47.4593L42.8706 47.4117L43.0262 47.3164L43.1277 47.1151L43.145 46.9982L43.1234 46.9008L42.9397 46.5349L42.9073 46.4137L42.903 46.2968L42.9246 46.1388L42.9527 46.0522L43.0283 45.8811L43.1471 45.7123L43.3373 45.5304L44.7936 44.6472L44.9945 44.5736L45.1868 44.526L45.3337 44.6018L45.4439 44.6818L45.5757 44.8096L45.6859 44.8918L45.8026 44.9611L45.8955 44.9892L45.9711 44.9828L46.3103 44.8204L47.1897 44.2749L47.4036 44.0844L47.4512 43.9956L47.4101 43.7878L46.911 42.2703L48.5012 43.1578L49.0349 43.3765L49.3698 43.4652L49.5988 43.4826V43.4826Z" fill="#399CF7"/>
<path d="M38.6223 41.7166L39.9358 41.682L40.7169 41.559L45.843 41.7576L46.252 41.8893L46.9509 42.3168L47.4508 43.8304L47.4919 44.0377L47.4443 44.1262L47.2301 44.3163L46.3494 44.8604L46.0097 45.0223L45.9339 45.0288L45.8409 45.0007L45.724 44.9316L45.6137 44.8496L45.4817 44.7222L45.3713 44.6423L45.2242 44.5667L45.0316 44.6142L44.8304 44.6876L43.3719 45.5686L43.1815 45.75L43.0625 45.9184L42.9868 46.089L42.9587 46.1753L42.937 46.3329L42.9413 46.4495L42.9738 46.5705L43.1577 46.9354L43.1794 47.0325L43.1621 47.1491L43.0604 47.3499L42.9046 47.4449L42.6903 47.4924L41.8746 47.4946L41.643 47.5313L41.4331 47.6393L41.3466 47.7666L41.3206 47.9415L41.4072 48.6519L41.4093 48.7145L41.3812 48.9499L41.2925 49.1421L38.5466 53.238L38.4124 53.5403L38.3648 53.7886V54.1838L38.3302 54.3867L38.1982 54.8726L38.1701 55.0496L38.2242 55.8248L38.1917 56.5287L38.2934 57.2585L38.2631 57.5132L38.1896 57.8306L37.8022 58.88L37.8066 58.9815L37.8369 59.0895L37.9537 59.3658L37.9948 59.5364L37.9494 59.7977L37.7936 60.2468L37.1531 61.5509L36.9756 62.1037L36.8458 62.7083L36.7138 64.0815L36.7073 64.0923L36.5948 64.1679L35.1818 64.9279L34.8464 65.0596L34.3509 65.1546L29.7549 65.4116L29.5602 65.4526L29.3676 65.5325L28.924 65.7765L28.4177 65.9946L27.3963 66.1608L27.2016 66.2234L26.9657 66.3465L26.8381 66.4782L26.758 66.6142L26.6606 67.1648L26.6065 67.3419L26.4204 67.6679L26.3772 67.7673L26.3664 67.8709L26.4356 69.8574V69.8595L26.0245 69.8703L25.728 69.8336L25.3212 69.5875L24.8452 69.1945L24.3237 68.9375L23.7806 69.0952L23.3348 68.808L23.2007 68.672L22.9951 68.3286L22.9107 68.2401L22.8847 68.0328L22.7138 67.7111L22.4844 67.4175L22.1101 67.2037L21.8677 66.7978L21.7379 66.6553L21.8656 66.4005L21.9153 66.0507L21.8656 65.7376L21.6903 65.6016L21.4436 65.5174L21.2316 65.3252L21.0433 65.1114L20.8659 64.9668L20.7599 64.9517L20.4764 64.9733L20.3812 64.9668L20.2513 64.8761L19.9765 64.5954L19.8489 64.5349L19.5546 64.4486L19.4075 64.237L19.3231 63.993L19.2105 63.7965L18.2887 63.3863L17.962 63.369L17.7651 63.3128L17.6223 63.2135L17.4557 63.0602L17.2393 62.9069L17.0099 62.8097L16.7503 62.7579L16.443 62.745L16.3132 62.6608L16.1812 62.298L15.954 62.1512L15.967 61.9957L16.0319 61.8187L16.0989 61.6913L15.8458 61.6848L15.6792 61.6546L15.5515 61.5898L14.8353 60.8319L14.6297 60.7326H13.9589L13.7685 60.6786L13.6495 60.6052L13.4266 60.3569L13.2254 60.2166L13.022 60.1259L12.8618 59.992L12.7969 59.7243L12.7861 59.4392L12.7472 59.2579L12.6584 59.1089L12.507 58.9254L12.3533 58.7915L12.0331 58.608L11.8665 58.4568L11.5462 57.9883L11.4316 57.8738L9.84979 56.9065L9.34345 56.3473L9.1487 56.0515L9.14654 55.9824L9.10543 55.9111L9.17683 55.5527L9.14654 55.4059L8.98858 55.1727L8.72243 54.607L8.5147 54.2939L8.21392 53.9765L8.08409 53.7994L8.03 53.6116L7.96292 53.6094L7.82227 53.5144L7.7011 53.4021L7.68811 53.3482L7.58641 53.2985L7.53232 53.1819L7.49337 53.0437L7.44144 52.9293L7.05194 52.4996L6.96323 52.3377L6.90264 52.1649L6.80743 52.0332L6.61701 51.9771L6.55859 51.895L6.73386 51.5344L6.46338 51.3617L6.46987 51.1609L6.56725 50.8241L6.49367 50.6643L6.44174 50.6384L6.35735 50.6492L6.17992 50.6038L5.82938 50.4419L5.64329 50.2886L5.64112 50.0964L5.84236 49.8179L5.92026 49.5609L5.80774 49.2867L5.49398 48.9197L5.41608 48.8981L5.32088 48.9045L5.23865 48.883L5.20403 48.7728L5.20619 48.6023L5.19321 48.5245L5.15426 48.4533L5.0504 48.3885L4.89244 48.341L4.3861 48.2741L4.28223 48.2589L4.00526 48.1531L3.01422 47.4665L2.77404 47.2247L2.6745 46.9937L2.55333 46.8879L1.98207 46.7086L1.80248 46.6288L1.45843 46.1753L1.21608 45.9724L0.882845 45.886L0.720558 45.8666L0.53014 45.8104L0.357033 45.7111L0.251005 45.5729L0.279135 45.4455L0.37218 45.3116L0.42844 45.1519L0.339722 44.9467H0.437095L0.363525 44.828L0.263988 44.7287L0.142813 44.6596L0 44.6315L0.324576 43.8671L0.724885 42.4205L1.10139 41.0602L1.72025 38.9874L2.23741 37.26L2.89954 35.0512L3.38424 33.4361L3.9014 31.6655L4.39908 29.9684L4.86214 28.3965L5.31871 26.8354L5.37281 25.84V25.8314L5.34468 23.6247L5.32737 22.1672L5.31222 20.8372L5.29491 19.4596L5.41608 19.0559L5.93324 18.2699L6.24267 17.8186L6.53912 17.389L7.17312 16.4713L7.80929 15.5515L8.44329 14.6338L9.0773 13.714L9.31315 13.3556L9.54901 12.995L9.78487 12.6366L10.0229 12.276L10.2047 11.8852L10.2999 11.6865L10.4881 11.8528L11.8037 12.6949L38.3129 20.5479L39.2953 20.9667L39.6675 21.2518L39.3797 22.4307L39.3818 22.4976L39.4013 22.5883L39.4532 22.6768L39.7497 23.0633L39.9163 23.3656L39.9964 23.5664L40.0851 23.9227L40.0916 24.063L40.0872 24.1883L40.0331 24.5877L40.044 24.7108L40.0829 24.8231L40.3729 25.3391L41.1345 26.4014L41.2146 26.5418L41.3509 26.8678L41.9352 30.7673L41.9395 30.912L41.9287 31.0415L41.907 31.1452L41.8832 31.2251L41.8486 31.2898L41.8032 31.3417L41.7274 31.4064L40.2928 32.2766L40.0764 32.4472L39.8687 32.6739L39.7843 32.8099L39.7216 32.9611L38.4427 38.6872L38.2415 39.294L38.2112 39.4905V39.6373L38.4406 41.0429L38.4557 41.5093L38.4947 41.6648L38.6223 41.7166V41.7166Z" fill="#399CF7"/>
<path d="M63.7735 13.2033L63.78 13.4449L63.8642 13.4967L63.9829 13.4794L64.0823 13.5118L64.1816 13.6153L64.3154 13.7879L64.3435 13.9454L63.8232 14.1266L63.7195 14.3789L63.8081 14.6594L64.0823 14.8513L64.1686 14.8276L64.2355 14.7392L64.3219 14.6529L64.4687 14.6443L64.5616 14.7003L64.676 14.8168L64.7429 14.9613L64.6069 15.3755L64.6393 15.7594L64.7364 16.1326L64.8466 16.3872L65.0711 16.6482L65.3755 16.8876L65.6951 17.058L65.9628 17.1249L66.1722 17.2457L66.1333 17.5153L65.911 17.951L65.8807 18.2573L65.8958 18.6434L65.9541 19.008L66.1161 19.3704L66.1269 19.5408L66.1118 19.8686L66.1506 20.0779L66.3363 20.3734L66.4032 20.5416L66.3967 20.7034L66.2909 20.9946L66.2974 21.1693L66.3838 21.3398L66.5176 21.4454L66.6407 21.4282L66.7703 20.9019L66.9559 20.7854L67.1826 20.8221L67.3769 20.9623L67.4352 21.055L67.5173 21.2794L67.5713 21.3764L67.6598 21.4605L67.8778 21.6137L68.0009 21.7367L68.0376 21.8812L67.9297 21.9955L67.7634 22.071L67.4568 22.1357L67.3446 22.2198L67.1848 22.3989L66.971 22.5585L66.8653 22.6944L66.9581 22.7871L67.3251 22.8216L67.6123 22.882L67.8541 23.0417L68.0095 23.2703L68.0462 23.5443L67.8994 23.7017L67.3143 24.0274L67.1848 24.2216L67.228 24.392L67.3251 24.4653L67.4223 24.4934L67.4655 24.53H67.5367L67.8649 24.8018L68.1887 25.1534H68.2837L68.3442 24.8881L68.6054 25.1168L68.627 25.4489L68.4953 25.7984L68.111 26.3937L68.1218 26.6094L68.3442 27.071L68.4305 27.7462L68.3744 28.458L68.1758 29.1008L67.8541 29.5775L67.4525 29.8731L67.3769 29.9917L67.3683 30.1815L67.4396 30.298L67.5281 30.3778L67.5713 30.4619L67.6878 30.6216L67.9145 30.6906L68.0678 30.8394L67.9577 31.2363L67.0142 32.6988L66.7983 33.2165L66.7422 33.5379L66.7573 33.8744L66.8739 34.144L67.133 34.254L67.2668 34.3856L67.1654 34.6876L66.984 35.0349L66.8868 35.2937L66.9451 35.5526L67.0941 35.8244L67.2712 36.0444L67.4223 36.1328L67.5 36.2795L66.8868 37.2976L66.8933 37.591L66.9451 37.8693L66.9322 38.1605L66.7443 38.4927L66.6472 38.7558L66.7767 38.9758L66.9754 39.2261L67.079 39.5777L67.0142 39.7675L66.6839 40.3887L66.5522 40.5246L66.5198 40.6713L66.2089 41.5665L66.1873 41.7757L66.1916 42.0065L66.2175 42.164L66.4032 42.2653L66.4011 42.2675L66.2888 42.4056L66.3881 43.0462L66.4917 43.2921L66.3449 44.2434L66.3946 44.6058L66.5069 44.9509L66.6429 45.1385L66.8609 45.2162L67.2193 45.2335L67.4849 45.2939L67.6166 45.4535L67.7569 45.9647L68.4133 46.7908L68.4759 46.9656L68.2125 47.2093L68.124 47.3215L68.1607 47.4919L63.2726 45.3176L63.0718 45.186L62.9574 45.0307L62.8581 44.3038L62.6573 44.1528L62.2946 44.0514L55.6426 43.5941L54.9042 43.6761L51.8837 43.4215L49.6988 43.5035L49.4699 43.4862L49.1353 43.3978L48.602 43.1799L47.0129 42.2955L46.3156 41.8685L45.9075 41.7369L40.7928 41.5384L40.0134 41.6614L38.7028 41.6959L38.5754 41.6441L38.5366 41.4888L38.5215 41.0229L38.2926 39.6186V39.472L38.3228 39.2757L38.5236 38.6695L39.7996 32.949L39.8622 32.798L39.9464 32.6621L40.1537 32.4356L40.3696 32.2652L41.801 31.3959L41.8766 31.3312L41.9219 31.2795L41.9565 31.2148L41.9802 31.1349L42.0018 31.0314L42.0126 30.902L42.0083 30.7575L41.4254 26.8618L41.2893 26.5361L41.2095 26.3959L40.4495 25.3346L40.1602 24.8191L40.1213 24.7069L40.1105 24.584L40.1645 24.1849L40.1688 24.0598L40.1623 23.9196L40.0738 23.5637L39.9939 23.3631L39.8277 23.0611L39.5319 22.675L39.4801 22.5865L39.4606 22.4959L39.4585 22.4291L39.7456 21.2513L39.3743 20.9666L38.3941 20.5481L11.9438 12.7029L10.6311 11.8616L10.4432 11.6956L10.5318 11.5079L10.7153 11.1175L10.8988 10.7292L11.2982 9.62263L11.6955 8.51606L12.0927 7.41164L12.4922 6.30723L12.7577 5.56952L12.8721 5.39048L13.0988 5.29557L14.3597 5.10359L14.6641 5.05614L15.3313 4.9526L16.0006 4.85122L16.305 4.80376L21.0981 3.7619L25.8911 2.71789L30.6842 1.67603L35.4772 0.634174L37.6104 0.170407L38.7719 0.155308L41.4405 0.120795L44.1069 0.0862822L46.7754 0.0517693L49.444 0.0150994L50.5926 0L50.8755 0.0711828L51.2986 0.373171L51.7045 0.664373L52.417 1.10657L53.7383 1.92841L55.0597 2.75025L56.381 3.56993L57.7023 4.39176L59.0236 5.2136L60.3428 6.03544L61.6641 6.85944L62.9855 7.68128L63.5403 8.02856L63.6936 8.20113L63.739 8.41683L63.6958 8.91295L63.726 9.39613L63.9657 10.2568L64.0132 10.7292L63.9765 11.0635L63.9959 11.6999L63.9721 12.0126L63.7627 12.8108L63.7735 13.2033V13.2033Z" fill="#399CF7"/>
</svg>
