<svg width="527" height="568" viewBox="0 0 527 568" fill="none" xmlns="http://www.w3.org/2000/svg">
<path d="M461.093 462.177L463.222 468.94L464.52 470.192L469.169 469.962L470.4 470.02L470.916 470.125L471.527 470.297L473.111 470.975L475.135 471.491L475.784 471.882L476.748 472.618L477.254 472.857L477.636 472.895L477.875 472.733L478.027 472.599L478.142 472.436L478.333 471.94L478.581 471.615L478.991 471.166L481.063 470.975L481.903 470.774L482.285 470.612L482.714 470.335L483.144 469.914L483.411 469.59L484.356 467.851L484.805 467.173L485.158 466.752L485.454 466.523L485.845 466.361L486.132 466.37L486.323 466.466L486.437 466.657L486.475 466.982L486.437 467.335L486.17 468.338L486.132 468.816L486.284 469.179L486.867 469.647L487.344 469.809L487.821 469.8L488.165 469.647L488.537 469.408L489.377 468.682L489.902 468.396L490.408 468.243L491.372 468.233L492.566 468.472L493.482 468.816L494.685 469.437L495 469.666L495.248 469.905L495.401 470.125L495.468 470.411V470.755L495.391 471.242L495.401 471.691L495.525 472.14L495.897 472.57L496.594 472.742L500.164 473.029H500.279H500.317L500.25 473.373L500.403 474.739V477.891L499.439 480.088L499.353 480.47L499.162 480.862L498.56 485.132L498.274 486.269L497.72 487.224L495.802 489.421L494.036 490.883L493.1 492.029L492.499 493.29L492.566 494.274L492.9 495.268L493.1 496.567L493.033 498.172L492.804 499.891L492.298 501.448L491.43 502.595L490.781 502.91L490.437 502.738L490.151 502.375L489.673 502.108H486.895L485.397 502.499L484.356 503.493L483.678 504.887L482.858 508.116L482.399 509.349L481.788 510.38L480.891 511.469L479.86 511.947L476.796 512.214L475.526 512.692L471.469 516.79L471.04 517.984L471.899 520.755L471.689 522.283L470.677 523.124L469.226 523.382L466.744 523.248L465.78 522.952L464.615 522.321L463.279 521.777L461.771 521.758L458.716 523.458L455.785 523.84L454.525 524.222L453.418 524.958L452.368 526.123L451.624 527.47L451.242 528.903L451.089 532.151L450.421 533.269L448.884 533.422L447.156 533.24L445.915 533.374L445.199 534.492L444.932 535.934L444.569 537.205L443.548 537.749L441.887 538.17L441.839 539.23L443.347 542.115L443.615 542.946L443.739 543.701L443.605 544.436L442.775 545.869L442.822 546.337L442.985 546.92L442.927 547.894L442.316 549.499L441.304 550.712L439.978 551.477L438.422 551.744L436.656 553.11L434.422 555.785L432.083 557.638L428.303 555.556L426.613 555.078L425.859 554.648L425.325 553.932L424.38 551.286L423.444 549.967L422.175 549.471L420.714 549.499L419.196 549.728L418.853 549.738L417.679 549.776L416.304 549.499H416.294L412.113 547.847H412.085L410.538 547.541L408.935 547.426L407.34 548.334L406.157 549.251L403.866 551.887L402.453 552.527L400.658 553.024L399.207 553.827L398.864 555.355L399.112 557.285L398.864 558.861L398.138 560.275L396.916 561.65L395.694 563.427L394.835 565.605L393.718 567.315L391.704 567.755L391.666 567.745L389.719 566.943L387.838 565.424L386.215 563.542L385.032 561.631L382.521 558.45L382.483 558.441L378.35 557.829L376.784 558.297V558.269L376.46 553.33L376.517 552.919L376.775 552.365L376.956 552.059L377.166 551.629L377.185 551.257L376.946 550.703L376.651 550.302L374.445 548.21L374.006 547.684L373.624 547.082L373.51 545.917L373.701 544.408L374.541 541.523L375.104 540.414L375.725 539.698L376.336 539.354L376.87 538.857L378.493 537.023L379.075 536.66L379.533 536.479L382.712 536.077L383.285 534.893L383.419 532.457L380.898 506.884L385.614 507.925L386.025 508.164L387.981 509.788L388.907 510.399L389.891 510.638L390.96 510.619L398.215 507.763L403.589 504.84L407.407 503.598L409.316 503.292L410.319 502.862L410.786 502.346L411.369 500.178L411.76 499.519L412.295 498.917L413.192 498.153L413.917 497.312L414.528 496.376L415.101 494.666L415.407 493.978L416.8 491.867L417.726 491.16L420.867 490.138L425.21 489.335L426.308 488.82L427.301 488.141L430.222 485.027L431.396 484.034L431.825 483.489L432.36 482.094L433.019 481.282L436.703 479.697L439.348 478.913L440.655 478.76L441.763 478.78L442.641 478.99L443.5 478.923L444.798 478.684L449.056 477.07L450.182 476.43L455.451 472.245L458.048 469.704L458.554 469.102L458.936 468.482L459.107 467.889L459.05 464.546L459.146 463.973L459.289 463.505L459.346 463.075V462.616L459.451 462.062L459.585 461.852L459.804 461.775L460.043 461.871L460.282 462.005L461.093 462.177Z" fill="#E4E4E4"/>
<path d="M462.267 318.12H462.277H462.286L464.51 318.951L466.763 319.419L468.987 319.237L471.126 318.12H471.135V318.11L472.729 317.298L476.691 317.327L478.619 316.754L479.679 316.238L481.779 316.142L482.867 315.97L483.927 315.33L485.301 313.487L486.113 312.636L490.151 310.334L498.322 307.468L499.391 306.886L500.966 305.157L501.93 304.679L503.601 305.137L514.206 311.223L515.476 312.168L518.941 317.031L524.821 320.584L526.568 321.54L526.597 321.559L525.289 322.61L523.103 324.253L521.623 326.192L521.003 328.303L521.175 329.411L521.986 331.589L522.291 334.159L522.778 335.019L524.258 336.987L524.773 338.563L525.613 340.712L525.537 342.709L524.945 344.829L524.162 346.339L521.738 349.988L521.012 352.214L520.993 354.325L521.871 359.054L521.833 361.289L519.514 368.396L519.475 368.377L518.063 367.756L517.184 367.642L515.571 367.651L514.101 367.804L512.545 367.795L511.075 367.479L509.328 366.744L507.524 366.199L502.722 365.483L502.121 365.215L501.691 364.719L501.329 364.145L500.67 362.407L500.403 362.111L500.107 362.006L499.563 362.082L498.646 362.359L498.245 362.426L497.73 362.34L497.253 362.168L496.556 361.814L496.002 361.671L495.248 361.738L494.79 362.072L494.494 362.378L494.093 363.018L493.807 363.362L493.492 363.677L493.157 363.897L492.833 364.04L492.451 364.069L492.136 363.887L491.802 363.4V362.798L491.85 362.388V362.072L491.621 361.853L491.115 361.623L490.227 361.499L487.945 361.413L487.42 361.327L486.934 361.146L486.514 360.725L486.399 360.353L486.428 359.999L486.561 359.627L486.647 359.245L486.676 358.758L486.552 358.137L485.826 357.391L484.623 356.713L479.822 355.166L479.297 355.185L478.361 355.347L476.882 355.968L476.118 356.131L475.297 355.997L474.39 355.596L473.474 354.698L473.178 353.866L473.111 353.102L473.378 350.561L472.033 350.208L465.093 352.596L448.683 355.395L447.423 355.815L446.612 356.283L439.749 363.706L436.627 366.123L435.749 367.135L433.983 369.906L432.331 371.931L428.99 369.925L428.36 369.38L427.959 368.654L427.501 367.661L426.948 366.065L425.735 364.766L424.685 363.887L422.843 362.712L422.136 361.748L421.478 360.248L420.571 357.382L419.225 354.612L415.913 349.95L414.614 346.922L414.318 346.501L413.956 346.157L413.478 345.919L412.304 345.517L411.731 345.231L411.216 344.868L410.691 344.352L410.261 343.807L409.908 343.148L409.574 342.317L409.307 341.247L409.04 339.012L408.877 338.238L408.62 337.598L408.276 337.216L406.93 336.041L406.806 335.172V333.853L407.178 330.644L407.121 329.115L407.407 328.064L407.598 327.72L408.82 326.058L409.087 325.848L409.364 325.666L409.679 325.504L411.206 325.16L411.521 325.017L411.779 324.797L412.581 323.727L414.003 322.333L414.796 321.244L415.741 320.307L416.018 320.145L416.275 320.03L416.552 320.021L416.705 320.03L417.096 320.126L417.211 319.639L416.886 318.072L413.03 307.698L413.774 308.213L414.7 308.653L415.082 308.777L415.483 308.834L415.827 308.767L416.161 308.634L416.676 308.357L417.173 308.166L419.416 307.965L420.972 307.592L422.576 306.933L423.177 306.532L423.559 306.102L424.437 304.536L425.067 303.915L427.74 302.405L434.221 297.61L435.567 296.798L436.484 296.406L438.231 296.368L438.803 296.225L439.338 296.014L441.906 294.496L442.612 293.827L443.032 293.12L443.548 290.483L444.665 287.417L445.285 286.414L445.886 285.965L445.925 285.936L445.963 286.175L445.915 288.64L446.125 290.923L447.328 292.7L450.106 295.699L451.461 299.96L452.406 313.181L453.008 314.967L454.42 316.496L456.349 317.375L460.291 317.68L462.267 318.11V318.12Z" fill="white"/>
<path d="M452.483 457.085L453.313 456.674L453.838 456.588L455.346 456.646L457.131 456.531L458.239 456.311L460.224 455.709L460.597 455.776L460.978 456.063L461.236 456.359L461.456 456.646L461.79 457.018L462.181 457.333L462.678 457.515L463.88 457.61L464.358 457.735L464.759 457.973L465.15 458.489L465.169 459.072L464.883 459.731L464.367 460.228L461.093 462.177L460.282 462.005L460.043 461.871L459.804 461.775L459.585 461.852L459.451 462.062L459.346 462.616V463.075L459.289 463.505L459.146 463.973L459.05 464.546L459.107 467.889L458.936 468.482L458.554 469.102L458.048 469.704L455.451 472.245L450.182 476.43L449.056 477.07L444.798 478.684L443.5 478.923L442.641 478.99L441.763 478.78L440.655 478.76L439.348 478.913L436.703 479.697L433.019 481.282L432.36 482.094L431.825 483.489L431.396 484.034L430.222 485.027L427.301 488.141L426.308 488.82L425.21 489.335L420.867 490.138L417.726 491.16L416.8 491.867L415.407 493.978L415.101 494.666L414.528 496.376L413.917 497.312L413.192 498.153L412.295 498.917L411.76 499.519L411.369 500.178L410.786 502.346L410.319 502.862L409.316 503.292L407.407 503.598L403.589 504.84L398.215 507.763L390.96 510.619L389.891 510.638L388.907 510.399L387.981 509.788L386.025 508.164L385.614 507.925L380.898 506.884L380.774 506.282L380.793 506.12L380.87 505.776L381.156 505.021L381.29 504.419L381.175 503.808L380.631 503.235L379.562 502.91L377.586 502.872L376.679 502.681L375.753 502.26L373.099 500.455L372.069 499.49L370.913 497.608L370.408 496.615L369.863 495.755L369.491 495.296L367.677 494.15L368.307 492.574L369.176 491.829L369.93 491.332L371.133 490.281L371.677 489.46L371.954 488.581L372.021 487.788L372.259 486.976L372.651 486.412L373.481 485.552L373.768 484.817L373.834 484.139L373.682 483.508L373.644 482.839L373.758 482.41L373.997 482.047L375.285 481.11L375.591 480.575L375.744 479.945L375.963 477.433L376.603 474.815L377.071 473.994L379.237 471.491L379.533 470.87L380.011 468.634L382.025 468.644L383.6 468.835L384.488 468.491L385.013 467.908L385.442 464.832L385.843 463.638L386.511 462.492L387.18 461.947L388.067 461.67L391.132 461.527L392.153 461.155L392.668 460.62L392.917 459.846L393.012 459.015L393.241 458.212L393.747 457.333L394.263 457.075L394.664 457.085L395.074 457.333L395.513 457.458L396.105 457.419L399.179 456.053L400.095 455.814L400.84 455.795L401.355 456.063L401.642 456.254L403.36 457.668L405.851 459.301L407.006 459.435L410.538 457.658L412.094 456.598L412.199 456.445L412.256 456.321L412.447 455.748L413.765 450.36L414.08 449.701L414.633 448.975L415.416 448.612L417.469 448.029L418.27 447.532L419.444 446.491L420.189 446.166L422.432 445.688L423.139 445.364L424.676 444.16L425.516 443.654L431.119 441.332L431.95 440.864L432.265 440.473L432.923 439.107L433.381 438.486L434.307 437.674L434.937 437.502L435.529 437.54L436.083 437.731L436.665 437.779L437.429 437.569L438.002 436.976L438.393 436.279L439.204 434.053L439.682 433.079L439.863 432.783L440.235 432.018L441.82 432.525L444.903 431.331L445.61 430.92L446.201 430.413L446.545 429.917L447.137 429.229L447.433 428.751L447.567 428.245L447.547 427.93L447.681 427.07L448.712 425.436L450.955 424.796L451.538 424.844L452.397 425.083L452.712 425.427L452.855 425.838L452.874 426.363L452.979 426.946L453.237 427.595L454.048 428.675L454.325 429.143L454.411 429.659L454.296 430.127L453.924 430.671L452.339 432.133L451.862 432.849L451.49 433.786L451.394 435.362L451.184 436.317L450.201 439.393L449.934 440.043L449.543 440.539L448.235 441.657L448.044 441.915L446.803 444.685L446.392 445.927V446.663L446.717 447.226L447.022 447.656L447.213 448.344L447.003 449.108L447.022 449.796L447.433 451.2V451.85L447.213 453.77L447.433 454.525L447.796 455.06L448.092 455.289L450.678 456.34L451.519 456.798L452.015 456.999L452.483 457.085Z" fill="#FCFCFC"/>
<path d="M462.964 389.355H463.374L464.52 389.193L464.883 389.26L465.188 389.403L465.427 389.632L465.646 389.89L465.895 390.11L466.19 390.225H466.534L466.897 390.177L467.241 390.167L467.527 390.301L467.737 390.54L468.1 391.084L473.149 395.899L478.4 399.711L478.648 399.94L478.82 400.226L478.858 400.618L478.81 401.038L478.428 402.385L478.438 402.739L478.571 403.035L478.772 403.293L479.001 403.494L479.335 403.685L481.006 404.353L481.282 404.544L481.464 404.821L481.531 405.184L481.387 406.445V406.866L481.454 407.238L481.588 407.563L481.76 407.869L482.161 408.432L482.313 408.738L482.428 409.082L482.495 409.464L482.514 410.324L481.092 410.754L479.431 410.706L477.827 410.477L476.987 408.986L476.872 408.041L476.634 407.257L476.147 406.646L475.269 406.273L474.199 406.073L473.703 405.891L473.207 405.557L472.815 405.098L472.214 404.124L471.823 403.694L471.861 404.42L472.195 405.796L472.252 406.464L471.555 406.512L470.763 406.321L469.264 405.767L468.615 405.404L467.021 403.79L465.856 402.968L465.14 402.949L463.289 405.022L448.712 425.436L447.681 427.07L447.547 427.93L447.567 428.245L447.433 428.751L447.137 429.229L446.545 429.917L446.201 430.413L445.61 430.92L444.903 431.331L441.82 432.525L440.235 432.018L439.51 431.12L439.176 430.996L438.613 430.958L434.852 432.544L431.052 433.719L429.086 433.977L427.492 433.862L426.652 433.394L425.85 432.677L424.552 431.082L423.836 430.356L422.996 429.745L421.716 429.219L420.561 429.019L413.841 429.21L412.877 429.019L412.113 428.637L411.598 428.111L410.891 427.72L405.832 427.528L403.999 427.194L403.083 427.156L401.317 427.309L394.253 426.984L393.012 427.099L391.943 427.433L390.043 428.646L389.327 428.961L388.516 429.2L386.55 429.544L385.48 429.936L384.64 430.48L381.672 433.308L381.042 433.7L377.596 435.371L376.231 436.193L374.216 435.925L373.854 435.744L373.319 435.429L371.964 433.69L370.007 432.238L369.778 431.703L369.73 431.541L366.102 424.013L365.778 423.134L365.721 422.485L366.064 422.007L381.433 411.126L382.683 406.808L385.767 388.448L390.33 383.719L390.988 383.27L392.898 382.21L393.518 381.56L393.986 380.767L394.272 380.051L394.644 379.363L395.313 378.771L398.024 377.166L398.845 376.316L399.417 375.37L399.723 374.539L400.143 373.689L400.658 372.972L401.26 372.342L401.937 371.979L402.501 372.036L403.303 372.762L403.57 373.603L403.618 374.338L403.369 375.399L403.312 375.905L403.36 376.469L403.532 376.975L403.971 377.443L404.601 377.882L407.474 378.981L407.865 379.21L408.276 379.545L410.414 381.981L413.326 384.722L413.87 384.971L414.404 384.483L414.948 383.681L417.698 378.198L418.614 377.07L419.903 376.02L424.943 373.918L432.331 371.931L433.983 369.906L435.749 367.135L436.627 366.123L439.749 363.706L446.612 356.283L447.423 355.815L448.683 355.395L465.093 352.596L463.47 354.917L461.57 357.172L461.274 357.64L461.083 358.213L460.998 358.882L461.083 359.913L461.465 361.451L461.542 362.149L461.475 362.741L460.807 363.926L460.549 364.585L460.625 367.412L460.492 368.244L460.081 369.056L459.633 369.457L459.155 369.772L458.907 370.202L458.773 370.957L459.06 372.256L459.604 373.899L459.642 374.51L459.547 375.141L458.897 376.144L458.477 376.602L458.42 377.338L458.458 377.806L458.573 378.236L458.697 378.561L458.773 378.933L458.783 379.373L458.697 380.452L458.707 380.911L458.783 381.312L458.888 381.665L458.917 382.105L458.897 382.659L458.659 383.499L458.697 384.149L458.84 384.588L459.613 385.697L459.919 386.317L460.158 386.948L460.425 387.645L460.597 387.932L460.797 388.199L461.236 388.687L461.503 388.897L461.799 389.088L462.143 389.231L462.534 389.327L462.964 389.355Z" fill="#FAFAFA"/>
<path d="M476.118 356.131L476.882 355.968L478.361 355.347L479.297 355.185L479.822 355.166L484.623 356.713L485.826 357.391L486.552 358.137L486.676 358.758L486.647 359.245L486.561 359.627L486.428 359.999L486.399 360.353L486.514 360.725L486.934 361.146L487.42 361.327L487.945 361.413L490.227 361.499L491.115 361.623L491.621 361.853L491.85 362.072V362.388L491.802 362.798V363.4L492.136 363.887L492.451 364.069L492.833 364.04L493.157 363.897L493.492 363.677L493.807 363.362L494.093 363.018L494.494 362.378L494.79 362.072L495.248 361.738L496.002 361.671L496.556 361.814L497.253 362.168L497.73 362.34L498.245 362.426L498.646 362.359L499.563 362.082L500.107 362.006L500.403 362.111L500.67 362.407L501.329 364.145L501.691 364.719L502.121 365.215L502.722 365.483L507.524 366.199L509.328 366.744L511.075 367.479L512.545 367.795L514.101 367.804L515.571 367.651L517.184 367.642L518.063 367.756L519.475 368.377L519.514 368.396L518.721 370.823L516.927 373.459L516.449 374.587L513.576 387.139L513.013 389.518L512.889 390.807L512.946 391.973L513.452 393.31L515.046 395.975L515.247 397.284L514.674 398.497L512.564 400.465L511.81 401.698L510.426 406.226L508.87 408.7L507.705 410.247L505.911 411.89L504.517 414.47L503.772 416.915L503.648 417.699L503.61 419.189L503.858 420.727L504.479 421.988L504.918 423.297L504.756 424.959L504.393 426.631L504.374 426.783L504.25 427.997L505.252 430.241L505.433 431.646L504.479 432.267L502.274 432.142L501.701 432.802L501.682 434.636L502.827 438.275L503.009 439.651L503.314 440.587L504.727 442.345L505.147 443.186L505.042 444.724L504.441 445.965L503.753 447.064L503.429 448.201L503.925 451.344L503.983 452.643L503.429 453.694L502.904 453.875L501.386 453.971L500.871 454.21L500.489 454.964L500.527 455.662L500.737 456.388L501.052 458.508L501.72 460.744L501.682 462.31L500.393 466.772L500.632 467.832L501.768 469.208L501.987 470.106L501.586 470.889L500.871 471.921L500.355 472.847L500.317 473.029H500.279H500.164L496.594 472.742L495.897 472.57L495.525 472.14L495.401 471.691L495.391 471.242L495.468 470.755V470.411L495.401 470.125L495.248 469.905L495 469.666L494.685 469.437L493.482 468.816L492.566 468.472L491.372 468.233L490.408 468.243L489.902 468.396L489.377 468.682L488.537 469.408L488.165 469.647L487.821 469.8L487.344 469.809L486.867 469.647L486.284 469.179L486.132 468.816L486.17 468.338L486.437 467.335L486.475 466.982L486.437 466.657L486.323 466.466L486.132 466.37L485.845 466.361L485.454 466.523L485.158 466.752L484.805 467.173L484.356 467.851L483.411 469.59L483.144 469.914L482.714 470.335L482.285 470.612L481.903 470.774L481.063 470.975L478.991 471.166L478.581 471.615L478.333 471.94L478.142 472.436L478.027 472.599L477.875 472.733L477.636 472.895L477.254 472.857L476.748 472.618L475.784 471.882L475.135 471.491L473.111 470.975L471.527 470.297L470.916 470.125L470.4 470.02L469.169 469.962L464.52 470.191L463.222 468.94L461.093 462.177L464.367 460.228L464.883 459.731L465.169 459.072L465.15 458.489L464.759 457.973L464.358 457.735L463.88 457.61L462.678 457.515L462.181 457.333L461.79 457.018L461.456 456.646L461.236 456.359L460.978 456.063L460.597 455.776L460.224 455.709L458.239 456.311L457.131 456.531L455.346 456.646L453.838 456.588L453.313 456.674L452.483 457.085L452.015 456.999L451.519 456.798L450.678 456.34L448.092 455.289L447.796 455.06L447.433 454.525L447.213 453.77L447.433 451.85V451.2L447.022 449.796L447.003 449.108L447.213 448.344L447.022 447.656L446.717 447.226L446.392 446.663V445.927L446.803 444.685L448.044 441.915L448.235 441.657L449.543 440.539L449.934 440.043L450.201 439.393L451.184 436.317L451.394 435.362L451.49 433.786L451.862 432.849L452.339 432.133L453.924 430.671L454.296 430.127L454.411 429.659L454.325 429.143L454.048 428.675L453.237 427.595L452.979 426.946L452.874 426.363L452.855 425.838L452.712 425.427L452.397 425.083L451.538 424.844L450.955 424.796L448.712 425.436L463.289 405.022L465.14 402.949L465.856 402.968L467.021 403.79L468.615 405.404L469.264 405.767L470.763 406.321L471.555 406.512L472.252 406.464L472.195 405.796L471.861 404.42L471.823 403.694L472.214 404.124L472.815 405.098L473.207 405.557L473.703 405.891L474.199 406.073L475.269 406.273L476.147 406.646L476.634 407.257L476.872 408.041L476.987 408.986L477.827 410.477L479.431 410.706L481.092 410.754L482.514 410.324L482.495 409.464L482.428 409.082L482.313 408.738L482.161 408.432L481.76 407.869L481.588 407.563L481.454 407.238L481.387 406.866V406.445L481.531 405.184L481.464 404.821L481.282 404.544L481.006 404.353L479.335 403.685L479.001 403.494L478.772 403.293L478.571 403.035L478.438 402.739L478.428 402.385L478.81 401.038L478.858 400.618L478.82 400.226L478.648 399.94L478.4 399.711L473.149 395.899L468.1 391.084L467.737 390.54L467.527 390.301L467.241 390.167L466.897 390.177L466.534 390.225H466.19L465.895 390.11L465.646 389.89L465.427 389.632L465.188 389.403L464.883 389.26L464.52 389.193L463.374 389.355H462.964L462.534 389.327L462.143 389.231L461.799 389.088L461.503 388.897L461.236 388.687L460.797 388.199L460.597 387.932L460.425 387.645L460.158 386.948L459.919 386.317L459.613 385.697L458.84 384.588L458.697 384.149L458.659 383.499L458.897 382.659L458.917 382.105L458.888 381.665L458.783 381.312L458.707 380.911L458.697 380.452L458.783 379.373L458.773 378.933L458.697 378.561L458.573 378.236L458.458 377.806L458.42 377.338L458.477 376.602L458.897 376.144L459.547 375.141L459.642 374.51L459.604 373.899L459.06 372.256L458.773 370.957L458.907 370.202L459.155 369.772L459.632 369.457L460.081 369.056L460.492 368.244L460.625 367.412L460.549 364.585L460.807 363.926L461.475 362.741L461.542 362.149L461.465 361.451L461.083 359.913L460.998 358.882L461.083 358.213L461.274 357.64L461.57 357.172L463.47 354.917L465.093 352.596L472.033 350.208L473.378 350.561L473.111 353.102L473.178 353.866L473.474 354.698L474.39 355.596L475.297 355.997L476.118 356.131Z" fill="#F1F1F1"/>
<path d="M415.187 201.374L416.018 201.136L416.819 200.687L417.659 201.097L418.557 201.814L419.53 202.32L423.435 202.693L424.599 203.409L424.742 202.922L425.43 201.518L428.58 205.826L431.119 207.746L431.74 208.463L432.284 210.106L432.494 215.847L432.933 218.302L434.011 220.509L435.644 222.266L437.725 223.432L438.994 223.9L439.825 224.387L440.293 225.19L440.493 226.594L440.426 227.119L440.083 228.247L440.035 228.82L440.169 229.412L440.569 230.511L440.627 231.103L439.987 233.367L438.899 235.335L438.078 237.398L438.231 239.939L439.624 245.184V246.359L439.271 248.651L439.405 249.807L441.056 251.737L441.734 252.788L442.078 254.116L441.763 256.599L441.81 257.727L442.488 258.615L444.226 259.695L444.455 260.296L445.829 265.369L445.801 266.506L444.34 269.61L444.149 270.738L444.56 272.266L446.478 274.329L447.166 275.619L447.061 277.721L445.381 281.523L445.533 283.892L445.925 285.936L445.886 285.965L445.285 286.414L444.665 287.417L443.548 290.483L443.032 293.12L442.612 293.827L441.906 294.496L439.338 296.014L438.803 296.225L438.231 296.368L436.484 296.406L435.567 296.798L434.221 297.61L427.74 302.405L425.067 303.915L424.437 304.536L423.559 306.102L423.177 306.532L422.576 306.933L420.972 307.592L419.416 307.965L417.173 308.166L416.676 308.357L416.161 308.634L415.827 308.767L415.483 308.834L415.082 308.777L414.7 308.653L413.774 308.213L413.03 307.698L413.517 307.612L414.099 307.354L416.208 305.787L416.352 305.644L416.466 305.405L416.8 304.259L417.889 302.195L418.156 301.517L418.251 301.144L418.299 300.724L418.318 298.966L418.137 297.304L417.831 296.244L417.803 295.909L417.927 295.613L419.32 293.741L419.989 293.005L420.37 292.451L420.79 291.458L420.876 291.085L420.924 290.684L420.695 288.162L420.752 287.283L420.895 286.5L420.886 286.175L420.724 285.917L420.094 285.822L419.234 285.85L415.407 286.614L414.853 286.853L414.595 287.063L414.528 287.426L414.557 288.42L414.481 289.012L414.328 289.452L414.108 289.776L413.765 290.006L413.068 290.359L412.629 290.655L411.665 291.458L411.321 291.639L410.996 291.649L410.366 291.19L409.584 290.321L408.467 288.315L407.961 287.169L407.646 286.271L407.493 285.678L407.484 285.21L407.703 284.866L412.877 280.577L413.402 279.966L413.822 279.345L413.965 278.982L414.042 278.619L414.022 278.37L413.927 277.988L413.727 277.511L413.469 277.081L413.23 276.804L412.171 275.877L411.884 275.447L411.798 275.113L411.894 274.74L412.209 274.062L412.361 273.623L412.381 273.231L412.247 272.782L411.951 272.314L411.455 271.855L410.91 271.54L410.013 271.292L407.369 271.148L406.548 271.005L405.555 270.699L405.24 270.747L404.668 271.053L403.971 271.225L402.663 271.425L401.479 271.741L400.019 272.524L399.322 273.04L398.806 273.298L398.539 273.384L397.88 272.906L398.176 272.648L398.291 272.486L398.415 272.247L398.472 272.065L398.635 271.397L398.835 269.725L398.921 269.352L399.064 269.018L399.255 268.731L399.475 268.493L399.732 268.273L400.305 267.929L400.525 267.671L400.801 267.022L400.973 266.716L401.202 266.487L401.451 266.267L402.004 265.875L404.419 264.566L404.677 264.366L404.801 263.993L404.782 263.439L404.534 262.474L404.524 261.901L404.572 261.433L404.658 261.061L404.792 260.717L404.973 260.44L405.24 260.22L405.546 260.077L405.794 259.895L405.851 259.599L405.737 258.873L405.727 258.453L405.794 258.071L405.966 257.784L406.214 257.631L406.519 257.66L407.13 257.956L407.464 258.051L407.827 258.042L408.133 257.899L408.362 257.66L408.495 257.335L408.562 256.943L408.639 254.507L408.753 253.753L408.705 253.332L399.723 229.842L399.503 229.45L399.207 229.087L398.291 228.715L397.909 228.619L397.584 228.61L397.25 228.686L396.954 228.839L395.37 230.071L395.083 230.253L394.768 230.386L394.043 230.549L393.709 230.692L393.423 230.883L393.184 231.132L392.983 231.418L392.248 232.679L391.838 233.243L391.599 233.491L391.332 233.692L390.721 233.997L390.377 234.102L387.065 234.695L386.75 234.819L386.435 234.981L385.9 235.383L385.519 235.784L385.442 235.898L385.375 236.032L385.156 236.634L385.051 237.035L384.85 238.353L384.726 238.745L384.545 239.07L383.896 239.92L383.399 240.942L383.17 241.191L382.874 241.353L382.158 241.515L380.946 242.07L380.612 242.155L380.24 242.203L379.829 242.155L379.447 242.05L379.056 241.792L378.655 241.468L378.101 240.875L377.701 240.598L377.3 240.522L377.013 240.675L376.526 241.152L376.25 241.324L375.915 241.449L374.751 241.563L373.901 241.544L373.529 241.573L373.29 241.496L373.233 241.267L373.395 240.436L373.739 239.901L374.149 239.423L375.534 238.516L375.83 238.057L375.896 237.35L375.505 236.128L375.018 233.386L374.512 232.039L373.987 231.17L373.577 230.692L373.252 230.434L372.899 230.224L372.603 229.918L372.46 229.441L372.66 228.418L372.679 227.941L372.555 227.435L371.973 226.67L371.677 226.174L371.553 225.543L371.668 224.788L371.849 224.244L371.954 223.613L371.983 222.84L371.83 221.56L371.887 220.279L371.858 219.888L371.534 218.522L371.515 218.035L371.668 217.672L372.278 217.242L372.498 216.86L372.565 216.344L372.269 214.873L372.317 214.404L372.498 214.003L372.746 213.631L373.09 213.277L375.094 211.911L375.553 211.52L378.226 207.679L378.579 207.431L380.039 206.648L380.287 206.428L377.748 205.425L364.508 202.11L363.954 201.489L365.415 199.894L365.816 199.263L365.892 198.824L366.121 198.709L366.981 199.015L367.458 198.967L369.501 198.346L369.968 198.432L370.045 198.738L370.178 198.872L370.827 198.442L371.114 197.993L371.62 196.779L371.944 196.502L372.994 197.047L375.123 199.521L376.106 199.76L376.402 199.215L375.734 197.993L376.135 197.582L376.832 197.372L377.338 197.133L379.428 195.557L380.106 194.821L381.175 192.911L381.337 192.748L381.796 192.509L382.006 192.223L382.349 191.153L382.55 190.733L383.504 189.309L384.068 188.688L384.717 188.115L385.814 187.79L390.32 186.969L391.208 187.064L391.857 187.762L393.508 191.898L394.988 194.133L396.897 195.977L400.381 198.069L402.233 199.884L403.312 200.562L404.41 200.83L415.187 201.374Z" fill="#F9F9F9"/>
<path d="M354.103 424.395L358.762 424.109L359.411 424.128L360.222 424.319L360.585 424.806L360.814 425.398L361.148 427.156L361.32 427.681L361.702 428.512L361.788 428.78L361.797 429.086L361.73 429.41L361.549 429.764L360.785 430.614L360.003 431.311L359.783 431.569L359.735 431.846L359.917 432.305L360.356 432.572L360.871 432.744L362.79 432.878L363.229 432.84L363.697 432.716L364.136 432.477L364.537 432.219L364.976 431.846L365.568 431.445L366.265 431.101L366.923 431.13L367.391 431.206L370.007 432.238L371.963 433.69L373.319 435.429L373.854 435.744L374.216 435.925L376.23 436.193L375.18 437.186L374.741 438.438L374.627 439.584L374.703 440.797L375.066 442.928L375.705 445.096L376.135 446.157L376.603 446.959L378.092 448.898L378.626 449.939L379.228 451.869V452.91L378.922 453.627L378.302 453.961L375.629 454.63L375.209 454.869L374.856 455.337L374.78 455.776L374.808 456.149L374.856 456.302L375.2 458.957L375.457 459.97L375.83 460.877L380.011 468.634L379.533 470.87L379.237 471.491L377.071 473.994L376.603 474.815L375.963 477.433L375.744 479.945L375.591 480.575L375.285 481.11L373.997 482.047L373.758 482.41L373.644 482.839L373.682 483.508L373.834 484.139L373.768 484.817L373.481 485.552L372.651 486.412L372.259 486.976L372.021 487.788L371.954 488.581L371.677 489.46L371.133 490.281L369.93 491.332L369.176 491.829L368.307 492.574L367.677 494.15L365.434 490.577L364.88 490.31L364.098 490.052L363.363 490.262L362.189 490.119L361.014 489.383L358.943 487.654L357.616 486.737L353.893 484.779L353.435 484.616L352.881 484.511L352.299 484.492L351.66 484.578L351.001 484.75L350.524 484.951L350.142 485.161L349.158 485.935L348.433 486.708L347.851 487.616L347.498 488.457L347.326 489.106L347.087 489.612L346.782 489.995L346.104 490.329L345.77 490.768L345.569 491.112L345.464 491.437L345.226 491.724L344.777 492.096L343.861 492.459L343.326 492.88L342.973 493.52L342.877 494.446V495.526L342.782 496.328L342.362 497.016L341.541 497.56L338.314 498.697L332.797 499.93L331.136 499.777L329.771 499.156L328.759 498.43L327.088 497.981L326.21 497.513L325.571 496.882L325.141 496.29L324.311 495.85L319.757 494.838L318.917 494.389L318.45 493.825L318.058 493.214L317.629 492.746L316.044 491.819L315.633 491.332L315.414 490.845L314.965 489.593L314.641 488.934L314.268 488.447L313.543 488.046L313.113 487.74L312.073 486.269L309.944 485.17L311.176 483.747L312.512 482.706L313.247 481.617L315.662 476.888L323.986 468.529L324.253 468.023L324.33 467.307L322.592 457.133L325.523 454.315L326.955 452.461L328.635 449.242L328.883 447.733L328.759 446.5L327.299 441.734L327.213 440.176L327.442 438.123L328.224 435.725L328.912 434.33L329.656 433.27L331.89 431.092L333.923 428.703L339.193 420.173L339.613 419.647L341.436 417.995L343.994 416.399L347.068 422.169L347.641 422.714L348.595 423.392L350.275 423.478L351.02 423.612L352.471 424.109L353.578 424.347L354.103 424.395Z" fill="#F5F5F5"/>
<path d="M307.949 443.463L308.331 443.424L309.658 443.119L310.049 443.109L310.469 443.31L310.966 443.74L311.806 444.876L312.655 445.794L314.03 447.007L315.5 447.952L317.151 449.376L317.81 449.748L319.08 450.312L319.347 450.627L319.557 451.057L319.652 451.793L319.834 452.395L320.187 453.082L321.762 455.165L322.592 457.133L324.33 467.307L324.253 468.023L323.986 468.529L315.662 476.888L313.247 481.617L312.512 482.706L311.176 483.747L309.944 485.17L314.373 510.982L314.755 512.214L315.318 513.59L320.511 521.013L327.709 529.496L328.177 529.744L339.584 531.492L341.369 532.008L341.856 533.107L341.465 535.8L335.88 551.84L334.735 556.53L334.706 556.616L333.685 555.603L333.131 555.231L331.804 554.868L331.556 554.801H329.905L323.585 555.718L321.972 555.556L321.561 555.412L320.578 555.069L310.431 549.872L310.402 549.862L309.706 549.604L303.3 548.257L303.281 548.248L300.599 547.331H300.58L297.802 546.729L296.933 546.538L295.014 545.716L294.995 545.707L291.282 544.914L290.137 544.675H290.127L288.151 544.618L284.371 545.315L283.445 545.363L276.591 544.474L259.523 545.984L253.929 548.42L253.681 548.649V548.601L253.948 545.114L253.843 543.672L253.06 542.335L251.514 541.169L250.664 540.319L250.283 539.411L250.607 537.377L251.505 535.944L252.927 535.093L256.096 534.539L256.411 533.804L256.297 532.715L256.306 531.454L256.459 530.833L256.669 530.279L256.965 529.763L257.356 529.266L257.929 528.932L257.948 528.922L258.292 529.228L258.444 529.734V530.011L258.511 530.193L258.95 530.489L258.96 530.499L259.475 530.613L259.723 530.25L259.781 529.085L259.895 528.598L260.115 528.043L260.678 527.06L261.795 525.684L262.291 524.69L261.356 523.84L261.222 522.904L261.738 522.016L262.721 521.328L265.489 520.583L266.845 520.029L267.417 519.14L268.047 518.472L269.508 518.357L270.911 518.233L271.732 517.535L271.341 516.313L270.195 515.453L269.441 514.469L270.214 512.931L271.264 512.597L272.381 512.969L273.441 513.132L274.3 512.214L274.071 511.641L273.565 510.829L273.479 510.122L274.51 509.817L275.274 509.836L275.741 509.75L275.98 509.387L276.152 503.923L276.438 502.595L276.763 501.792L276.963 501.706L277.288 501.945L279.254 502.327L279.999 502.28L280.323 501.85L280.152 501.21L279.789 500.656L279.483 500.025L279.464 499.203L279.703 498.984L280.772 498.2L281.183 497.761L280.829 497.379L280.276 496.385L279.894 495.85L278.481 494.809L278.147 494.418L277.899 493.223L278.099 492.163L278.443 491.074L278.615 489.851L278.815 489.307L279.693 488.638L279.894 487.912L278.386 486.479L278.166 485.6L278.596 484.492L280.696 480.747L281.011 479.754L281.183 478.608L280.858 476.363L280.868 475.235L281.373 474.739L282.366 474.519L283.789 473.917L284.867 473.076L284.829 472.14L283.913 471.481L282.92 470.975L282.185 470.268L282.032 469.026L282.672 469.255L283.168 469.551L283.512 469.943L283.741 470.449L284.294 469.685L284.848 468.243L285.45 465.902L286.089 465.234L290.156 463.734L292.246 462.54L299.472 457.085L300.293 455.967V455.031L297.401 454.181L297.878 453.13L300.064 451.315L300.456 450.78L300.809 449.978L300.752 449.252L299.31 448.717L299.129 448.22L299.31 447.733L300.637 447.226L301.945 446.529L302.794 445.899L303.004 446.004L304.513 446.338L304.837 446.223L305.181 446.004L305.257 445.708L305.276 445.22L305.2 444.045L305.248 443.472L305.4 443.167L305.649 442.947L305.944 442.889L306.269 442.928L307.52 443.396L307.949 443.463Z" fill="#F9F9F9"/>
<path d="M363.363 490.262L364.098 490.052L364.88 490.31L365.434 490.577L367.677 494.15L369.491 495.296L369.863 495.755L370.407 496.615L370.913 497.608L372.068 499.49L373.099 500.455L375.753 502.26L376.679 502.681L377.586 502.872L379.562 502.91L380.631 503.235L381.175 503.808L381.29 504.419L381.156 505.021L380.87 505.776L380.793 506.12L380.774 506.282L380.898 506.884L383.418 532.457L383.285 534.893L382.712 536.077L379.533 536.479L379.075 536.66L378.493 537.023L376.87 538.857L376.335 539.354L375.725 539.698L375.104 540.414L374.541 541.523L373.701 544.408L373.51 545.917L373.624 547.082L374.006 547.684L374.445 548.21L376.65 550.302L376.946 550.703L377.185 551.257L377.166 551.629L376.956 552.059L376.775 552.365L376.517 552.919L376.46 553.33L376.784 558.269V558.297L373.959 559.129L370.761 561.65L368.451 562.099L368.422 562.08L366.179 560.686L362.303 556.778L360.108 555.881H360.098L357.817 556.119L355.535 557.055L349.349 560.485L347.297 560.953L344.844 560.838L344.309 560.753L342.839 560.724L342.82 560.714L342.142 560.504L341.57 560.132L339.899 558.699L339.269 558.383H339.24L336.396 557.591L335.804 557.428L335.145 557.065L334.706 556.616L334.735 556.53L335.88 551.84L341.465 535.8L341.856 533.107L341.369 532.008L339.584 531.492L328.177 529.744L327.709 529.496L320.511 521.013L315.318 513.59L314.755 512.214L314.373 510.982L309.944 485.17L312.073 486.269L313.113 487.74L313.543 488.046L314.268 488.447L314.641 488.934L314.965 489.593L315.414 490.845L315.633 491.332L316.044 491.819L317.629 492.746L318.058 493.214L318.45 493.825L318.917 494.389L319.757 494.838L324.311 495.85L325.141 496.29L325.571 496.882L326.21 497.513L327.088 497.981L328.759 498.43L329.771 499.156L331.136 499.777L332.797 499.929L338.314 498.697L341.541 497.56L342.362 497.016L342.782 496.328L342.877 495.526V494.446L342.973 493.52L343.326 492.879L343.861 492.459L344.777 492.096L345.226 491.724L345.464 491.437L345.569 491.112L345.77 490.768L346.104 490.329L346.782 489.995L347.087 489.612L347.326 489.106L347.497 488.457L347.851 487.616L348.433 486.708L349.158 485.935L350.142 485.161L350.524 484.951L351.001 484.75L351.659 484.578L352.299 484.492L352.881 484.511L353.435 484.616L353.893 484.779L357.616 486.737L358.943 487.654L361.014 489.383L362.189 490.119L363.363 490.262Z" fill="#EFEFEF"/>
<path d="M401.317 427.309L403.083 427.156L403.999 427.194L405.832 427.528L410.891 427.72L411.598 428.111L412.113 428.637L412.877 429.019L413.841 429.21L420.561 429.019L421.716 429.219L422.996 429.745L423.836 430.356L424.552 431.082L425.85 432.677L426.652 433.394L427.492 433.862L429.086 433.977L431.052 433.719L434.852 432.544L438.613 430.958L439.176 430.996L439.51 431.12L440.235 432.018L439.863 432.783L439.682 433.079L439.204 434.053L438.393 436.279L438.002 436.976L437.429 437.569L436.665 437.779L436.083 437.731L435.529 437.54L434.937 437.502L434.307 437.674L433.381 438.486L432.923 439.107L432.265 440.473L431.95 440.864L431.119 441.332L425.516 443.654L424.676 444.16L423.139 445.364L422.432 445.688L420.189 446.166L419.444 446.491L418.27 447.532L417.469 448.029L415.416 448.612L414.633 448.975L414.08 449.701L413.765 450.36L412.447 455.748L412.256 456.321L412.199 456.445L412.094 456.598L410.538 457.658L407.006 459.435L405.851 459.301L403.36 457.668L401.642 456.254L401.355 456.063L400.84 455.795L400.095 455.814L399.179 456.053L396.105 457.419L395.513 457.458L395.074 457.333L394.663 457.085L394.263 457.075L393.747 457.333L393.241 458.212L393.012 459.015L392.917 459.846L392.668 460.62L392.153 461.154L391.132 461.527L388.067 461.67L387.18 461.947L386.511 462.492L385.843 463.638L385.442 464.832L385.013 467.908L384.488 468.491L383.6 468.835L382.025 468.644L380.011 468.634L375.83 460.877L375.457 459.97L375.2 458.957L374.856 456.302L374.808 456.149L374.78 455.776L374.856 455.337L375.209 454.869L375.629 454.63L378.302 453.961L378.922 453.627L379.228 452.91V451.869L378.626 449.939L378.092 448.898L376.603 446.959L376.135 446.157L375.705 445.096L375.066 442.928L374.703 440.797L374.627 439.584L374.741 438.438L375.18 437.186L376.23 436.193L377.596 435.371L381.042 433.7L381.672 433.308L384.64 430.48L385.48 429.936L386.55 429.544L388.516 429.2L389.327 428.961L390.043 428.646L391.943 427.433L393.012 427.099L394.253 426.984L401.317 427.309Z" fill="white"/>
<path d="M323.833 394.724H325.628L327.05 396.835L327.26 397.036L329.78 398.66L330.382 399.262L332.301 402.567L334.191 404.649L334.983 405.853L335.317 406.741L335.489 407.783L335.88 409.111L338.047 413.104L338.677 413.963L339.078 414.279L339.527 414.46L339.956 414.451L340.338 414.355L340.577 414.183L341.016 413.772L341.34 413.543L341.617 413.467L342.009 413.505L342.715 414.298L343.994 416.399L341.436 417.995L339.613 419.647L339.193 420.173L333.923 428.703L331.89 431.092L329.656 433.27L328.912 434.33L328.224 435.725L327.442 438.123L327.213 440.176L327.298 441.734L328.759 446.5L328.883 447.733L328.635 449.242L326.955 452.461L325.523 454.315L322.592 457.133L321.762 455.165L320.187 453.082L319.834 452.395L319.652 451.793L319.557 451.057L319.347 450.627L319.08 450.312L317.81 449.748L317.151 449.376L315.5 447.952L314.03 447.007L312.655 445.794L311.806 444.876L310.966 443.74L310.469 443.31L310.049 443.109L309.658 443.119L308.331 443.424L307.949 443.463L307.519 443.396L306.269 442.928L305.944 442.889L305.649 442.947L305.4 443.166L305.248 443.472L305.2 444.045L305.276 445.22L305.257 445.708L305.181 446.004L304.837 446.223L304.513 446.338L303.004 446.004L302.794 445.899L303.224 445.583L303.911 444.619L302.957 442.259L302.737 440.922L303.682 440.339L304.828 439.938L306.04 439.001L307.09 437.903L307.758 437.014L307.09 436.833L306.498 436.565L306.002 436.164L305.62 435.591L306.928 433.585L307.71 432.83L309.047 432.267L309.744 432.2L310.402 432.248L311.023 432.19L311.605 431.789L311.844 431.254L312.168 429.707L312.292 429.382L314.125 429.621L315.108 429.592L315.528 429.162L315.824 427.548L316.512 427.051L317.352 426.841L318.096 426.057L318.43 424.815L319.251 418.797L319.175 417.66L318.726 416.753L317.886 415.807L316.703 414.871L318.182 413.486L319.738 411.757L320.359 408.996L320.053 406.407L319.118 404.688L317.59 403.169L318.449 402.328L319.395 400.895L320.215 399.09L320.788 397.189L321.017 395.431L321.323 394.495L322.077 394.342L323.833 394.724Z" fill="#EFEFEF"/>
<path d="M410.996 291.649L411.321 291.639L411.665 291.458L412.629 290.655L413.068 290.359L413.765 290.006L414.108 289.776L414.328 289.452L414.481 289.012L414.557 288.42L414.528 287.426L414.595 287.063L414.853 286.853L415.407 286.614L419.234 285.85L420.094 285.822L420.724 285.917L420.886 286.175L420.895 286.5L420.752 287.283L420.695 288.162L420.924 290.684L420.876 291.085L420.79 291.458L420.37 292.451L419.989 293.005L419.32 293.741L417.927 295.613L417.803 295.909L417.831 296.244L418.137 297.304L418.318 298.966L418.299 300.724L418.251 301.144L418.156 301.517L417.889 302.195L416.8 304.259L416.466 305.405L416.352 305.644L416.208 305.787L414.099 307.354L413.517 307.612L413.03 307.698L416.886 318.072L417.211 319.639L417.096 320.126L416.705 320.03L416.552 320.021L416.275 320.03L416.018 320.145L415.741 320.307L414.796 321.244L414.003 322.333L412.581 323.727L411.779 324.797L411.521 325.017L411.206 325.16L409.679 325.504L409.364 325.666L409.087 325.848L408.82 326.058L407.598 327.72L407.407 328.064L407.121 329.115L407.178 330.644L406.806 333.853V335.172L406.93 336.041L408.276 337.216L408.62 337.598L408.877 338.238L409.04 339.012L409.307 341.247L409.574 342.317L409.908 343.148L410.261 343.807L410.691 344.352L411.216 344.868L411.731 345.231L412.304 345.517L413.478 345.919L413.956 346.157L414.318 346.501L414.614 346.922L415.913 349.95L419.225 354.612L420.571 357.382L421.478 360.248L422.136 361.748L422.843 362.712L424.685 363.887L425.735 364.766L426.948 366.065L427.501 367.661L427.959 368.654L428.36 369.38L428.99 369.925L432.331 371.931L424.943 373.918L419.903 376.02L418.614 377.07L417.698 378.198L414.948 383.681L414.404 384.483L413.87 384.971L413.326 384.722L410.414 381.981L408.276 379.545L407.865 379.21L407.474 378.981L404.601 377.882L403.971 377.443L403.532 376.975L403.36 376.469L403.312 375.905L403.369 375.399L403.618 374.338L403.57 373.603L403.303 372.762L402.501 372.036L401.937 371.979L401.26 372.342L400.658 372.972L400.143 373.689L399.723 374.539L399.417 375.37L398.845 376.316L398.024 377.166L395.313 378.771L394.644 379.363L394.272 380.051L393.986 380.767L393.518 381.56L392.898 382.21L390.988 383.27L390.33 383.719L385.767 388.448L383.428 387.397L383.132 387.139L382.817 386.938L380.507 384.302L379.428 383.576L373.577 381.207L372.603 381.083L368.384 381.579L364.957 382.573L355.067 384.436L354.218 384.713L353.731 384.971L353.158 385.343L352.958 385.582L352.843 385.821L352.767 386.222L352.748 386.585L352.767 386.833L352.872 387.282L352.881 387.55L352.843 387.846L352.729 388.19L352.385 388.601L351.698 389.088L350.447 389.537L349.302 389.632L348.137 389.508L345.989 388.878L341.904 386.986L340.758 386.184L341.627 385.849L341.923 385.429L341.694 384.846L340.968 384.034L340.424 383.251L340.405 382.611L340.615 381.981L340.758 381.207L340.596 380.127L340.185 380.165L339.641 380.538L339.088 380.471L338.563 379.841L338.553 379.439L341.78 374.969L342.725 371.023L342.935 370.536L343.67 370.202L344.223 370.336L344.767 370.574L345.493 370.536L346.457 369.82L346.81 368.74L347.097 367.432L348.443 364.671L348.013 363.572L347.03 362.712L346.19 362.187L345.731 361.318L345.283 360.458L345.044 359.541L344.996 358.156L345.283 355.328L345.846 353.121L345.942 352.453L345.235 350.714L344.939 349.74L344.261 344.839L343.775 342.804L343.412 338.544L343.173 337.655L342.495 336.375L342.009 335.659L340.806 334.331L340.539 333.825L340.357 333.242L340.271 332.363L340.3 331.952L340.357 331.666L340.596 331.303L341.732 329.994L342.238 328.838L343.336 327.491L343.908 326.144L342.935 324.826L342.352 324.683L340.119 324.826L339.498 324.577L339.221 323.995L339.298 323.288L339.689 322.676L340.099 321.559L339.603 320.374L338.572 319.706L337.331 320.145L336.711 318.435L336.596 316.63L336.31 314.929L335.164 313.544L334.534 313.429L333.675 313.439L332.921 313.315L332.596 312.818L332.806 312.006L333.274 311.328L333.742 310.821L333.952 310.477L334.2 310.267L335.622 309.293L335.88 308.615L336.052 306.484L336.491 304.44L336.52 303.915L336.31 303.533L335.842 303.15L335.374 302.663L335.164 301.995L335.393 301.479L336.51 301.039L336.873 300.409L336.844 299.692L336.568 299.129L335.622 298.03L333.713 296.349L329.198 293.808L327.461 291.916L325.914 288.898L325.714 287.942L325.638 287.197L325.342 285.745L325.332 284.914L325.504 284.178L326.058 282.898L326.182 282.115L327.795 282.335L328.549 282.65L328.845 282.822L329.169 282.965L330.773 283.863L331.069 283.968L331.756 284.14L332.176 284.178L336.338 283.873L336.491 283.911L336.959 283.873L337.637 283.729L338.897 283.242L339.956 282.66L340.434 282.497L341.083 282.421L344.004 282.449L348.481 281.742L351.249 280.854L351.698 280.587L351.946 280.367L352.232 280.176L352.605 280.042L353.063 279.985L353.702 280.061L354.189 280.176L354.686 280.348L355.086 280.367L355.554 280.271L356.767 279.708L357.626 279.498L358.294 279.402L359.878 279.507L360.413 279.459L360.814 279.335L361.215 279.039L361.759 278.533L362.169 278.38L362.714 278.323L364.231 278.504L367.381 279.249L371.018 279.049L371.916 279.087L372.555 279.192L374.054 280.023L374.665 280.08H375.495L377.128 279.899L377.891 279.966L378.407 280.109L378.827 280.596L379.4 280.663L380.345 280.558L382.34 280.099L383.247 280.004H383.848L384.287 279.841L387.075 278.418L389.576 277.74L390.129 277.759L390.53 277.835L390.912 277.864L391.38 277.807L392.869 277.043L393.709 276.231L394.559 275.581L395.064 274.712L395.847 273.756L397.88 272.906L398.539 273.384L398.806 273.298L399.322 273.04L400.019 272.524L401.479 271.741L402.663 271.425L403.971 271.225L404.668 271.053L405.24 270.747L405.555 270.699L406.548 271.005L407.369 271.148L410.013 271.292L410.911 271.54L411.455 271.855L411.951 272.314L412.247 272.782L412.381 273.231L412.362 273.623L412.209 274.062L411.894 274.74L411.798 275.113L411.884 275.447L412.171 275.877L413.23 276.804L413.469 277.081L413.727 277.511L413.927 277.988L414.022 278.37L414.042 278.619L413.965 278.982L413.822 279.345L413.402 279.966L412.877 280.577L407.703 284.866L407.484 285.21L407.493 285.678L407.646 286.271L407.961 287.169L408.467 288.315L409.584 290.321L410.366 291.19L410.996 291.649Z" fill="#E4E4E4"/>
<path d="M219.335 192.901L228.995 192.538L242.35 193.665L245.615 193.302L275.025 195.327L276.629 195.776L277.517 196.445L277.956 199.664L278.462 200.352L279.35 200.935L300.962 210.564L301.315 212.121L302.117 219.802L303.023 221.894L304.618 223.747L305.305 224.874L305.582 226.336L304.99 227.005L303.596 227.033L300.885 226.565L298.031 226.976L295.94 228.438L295.253 230.472L296.609 232.555L297.21 232.841L298.642 233.224L299.176 233.567L299.52 234.236L299.835 235.832L300.227 236.586L300.79 236.863L302.222 236.787L302.804 237.045L303.281 237.599L303.472 237.952L303.873 239.137L304.503 240.016L304.761 240.646L304.694 241.458L304.15 242.136L303.319 242.748L302.708 243.359L302.804 244.028L304.904 245.996L305.725 247.085L306.049 248.508L304.694 251.212L305.629 252.129L308.417 253.485L309.009 254.278L309.41 255.558L310.402 255.931L312.894 255.95L314.058 256.485L314.545 257.325L314.631 258.472L314.603 259.895L315.013 261.013L316.015 262.016L317.275 262.837L319.624 263.984L320.034 264.28L320.588 264.786L322.115 266.802L322.774 267.327L323.814 268.359L324.043 268.77L324.053 270.241L323.938 270.633L323.614 271.349L323.089 272.266L322.726 272.705L322.583 273.174L322.764 274.148L323.137 274.826L324.244 275.848L324.664 276.603L325.523 277.291L325.714 277.663L325.771 278.208L326.182 280.252L326.42 280.95L326.43 281.446L326.182 282.115L326.058 282.898L325.504 284.178L325.332 284.914L325.342 285.745L325.638 287.197L325.714 287.942L325.914 288.898L327.461 291.916L329.198 293.808L333.713 296.349L335.622 298.03L336.568 299.129L336.844 299.692L336.873 300.409L336.51 301.039L335.393 301.479L335.164 301.995L335.374 302.663L335.842 303.15L336.31 303.533L336.52 303.915L336.491 304.44L336.052 306.484L335.88 308.615L335.622 309.293L334.2 310.267L333.952 310.477L333.742 310.821L333.274 311.328L332.806 312.006L332.596 312.818L332.921 313.315L333.675 313.439L334.534 313.429L335.164 313.544L336.31 314.929L336.596 316.629L336.711 318.435L337.331 320.145L338.572 319.706L339.603 320.374L340.099 321.559L339.689 322.676L339.298 323.288L339.221 323.995L339.498 324.577L340.119 324.826L342.352 324.683L342.935 324.826L343.908 326.144L343.336 327.491L342.238 328.838L341.732 329.994L340.596 331.303L340.357 331.666L340.3 331.952L340.271 332.363L340.357 333.242L340.539 333.825L340.806 334.331L342.009 335.659L342.495 336.375L343.173 337.655L343.412 338.544L343.775 342.804L344.261 344.839L344.939 349.74L345.235 350.714L345.942 352.453L345.846 353.121L345.283 355.328L344.996 358.156L345.044 359.541L345.283 360.458L345.732 361.318L346.19 362.187L347.03 362.712L348.013 363.572L348.443 364.671L347.097 367.432L346.81 368.74L346.457 369.82L345.493 370.536L344.767 370.574L344.223 370.336L343.67 370.202L342.935 370.536L342.725 371.023L341.78 374.969L338.553 379.439L338.563 379.841L339.088 380.471L339.641 380.538L340.185 380.165L340.596 380.127L340.758 381.207L340.615 381.981L340.405 382.611L340.424 383.251L340.968 384.034L341.694 384.846L341.923 385.429L341.627 385.849L340.758 386.184L339.422 386.002L337.723 385.563L336.253 385.725L335.622 387.359L332.596 391.419L331.947 391.925L331.193 392.374L330.458 392.708L329.838 392.833L329.313 393.129L328.148 394.428L327.68 394.724H325.628H323.833L322.077 394.342L321.323 394.495L321.017 395.431L320.788 397.189L320.215 399.09L319.395 400.895L318.45 402.328L317.59 403.169L316.808 403.57L315.032 404.134L314.097 404.669L313.39 405.318L312.044 406.999L310.145 405.691L308.923 403.971L306.909 399.453L306.154 398.555L304.198 397.59L303.253 396.883L300.494 393.635L299.606 392.842L298.365 392.384L293.401 392.364L292.523 392.078L292.141 391.371L291.903 390.588L291.483 390.005L290.891 389.881L289.497 390.062L288.876 390.005L284.524 387.798L283.741 387.836L283.12 386.795L277.479 382.878L276.324 382.917L275.283 383.69L273.517 385.544L272.763 386.098L271.971 386.499L271.264 386.614L270.472 386.375L270.138 385.983L269.947 385.439L269.556 384.77L265.537 380.242L264.048 378.15L263.284 377.386L261.862 376.669L248.039 373.956L247.715 373.631L247.562 373.077L247.171 372.791L246.674 372.561L246.226 372.208L245.328 371.94L242.14 371.854L240.842 371.52L228.833 362.378L226.848 361.881L226.237 361.432L224.986 360.181L224.375 359.799L223.993 359.722L222.81 359.703L221.569 359.254L219.23 357.697L217.76 357.181L215.965 355.901L213.359 355.003L212.767 354.526L212.424 354.058L211.956 353.695L211.011 353.551L210.419 353.331L209.608 352.357L207.546 351.593L206.515 350.313L205.245 347.867L204.654 347.199L202.219 345.049L200.702 344.352L200.482 343.807L200.329 343.186L200.11 342.709L199.728 342.365L198.363 341.763L196.941 340.932L196.263 340.407L195.585 339.652L195.089 339.289L193.934 339.05L192.864 338.4L191.299 338.19L190.669 337.971L190.22 337.55L189.113 336.031L186.717 333.557L164.179 318.559L163.043 318.282L161.755 318.416L158.814 319.467L157.316 319.811L152.629 319.963L147.722 319.209L145.746 319.314L145.164 319.209L144.496 318.827L143.264 317.718L142.596 317.298L142.023 317.203L139.799 317.298L135.923 316.534L133.871 315.044L132.726 314.49L130.482 314.385L130.12 314.251L129.117 312.063L129.05 311.672L128.478 311.547L127.39 310.936L126.702 310.697L125.977 310.63L123.103 310.793L122.492 310.63L121.213 309.513L120.621 309.322L116.956 309.408V309.398L116.65 300.609L116.698 300.151L116.889 299.711L117.71 298.269L117.949 297.486L118.378 295.05L118.731 294.448L119.295 293.865L120.335 293.321L121.194 293.044L125.7 292.308L127.934 291.343L129.891 290.264L130.74 289.91L131.599 289.729L151.875 288.592L154.061 288.172L155.54 287.589L161.774 284.226L162.27 283.892L162.299 283.844L162.881 277.768L163.454 275.094L164.236 272.648L167.062 266.878L167.749 264.891L167.95 263.735L167.768 262.981L167.253 261.758L167.119 261.28L167.1 260.831L168.809 256.189L169.133 254.784L169.267 253.657L168.818 250.428L168.962 247.314L168.723 243.885L168.847 243.101L169.429 240.952L169.582 240.054V238.306L169.792 237.207L170.384 235.87L182.498 217.748L182.889 216.898L183.013 215.857L183.004 215.579L182.622 212.437L182.736 211.663L183.118 211.099L184.044 210.622L185.065 210.459L188.664 210.45L189.609 210.239L190.297 209.819L190.745 208.931L190.822 208.415L190.726 207.985L189.915 206.371L189.772 205.836L189.752 205.32L189.848 204.622L189.972 204.24L190.306 203.486L190.831 202.74L191.671 201.938L198.105 198.04L198.993 197.716L199.842 197.505L200.492 197.84L200.978 198.193L201.561 198.757L202.048 199.12L202.563 199.426L202.973 199.55L203.308 199.521L204.806 198.805L208.691 196.397L209.636 195.557L209.846 195.165L209.665 194.248L207.46 187.551L214.486 191.468L216.844 192.433L218.323 192.825L219.335 192.901Z" fill="#F4F4F4"/>
<path d="M385.767 388.448L382.683 406.808L381.433 411.126L366.064 422.007L365.72 422.485L365.778 423.134L366.102 424.013L369.73 431.541L369.777 431.703L370.007 432.238L367.391 431.206L366.923 431.13L366.265 431.101L365.568 431.445L364.976 431.846L364.537 432.219L364.136 432.477L363.697 432.716L363.229 432.84L362.79 432.878L360.871 432.744L360.356 432.572L359.917 432.305L359.735 431.846L359.783 431.569L360.003 431.311L360.785 430.614L361.549 429.764L361.73 429.41L361.797 429.086L361.788 428.78L361.702 428.512L361.32 427.681L361.148 427.156L360.814 425.398L360.585 424.806L360.222 424.319L359.411 424.128L358.762 424.109L354.103 424.395L353.578 424.347L352.471 424.109L351.02 423.612L350.275 423.478L348.595 423.392L347.641 422.714L347.068 422.169L343.994 416.399L342.715 414.298L342.009 413.505L341.617 413.467L341.34 413.543L341.016 413.772L340.577 414.183L340.338 414.355L339.956 414.451L339.527 414.46L339.078 414.279L338.677 413.963L338.047 413.104L335.88 409.111L335.489 407.783L335.317 406.742L334.983 405.853L334.191 404.649L332.301 402.567L330.382 399.262L329.78 398.66L327.26 397.036L327.05 396.835L325.628 394.724H327.68L328.148 394.428L329.313 393.129L329.838 392.833L330.458 392.708L331.193 392.374L331.947 391.925L332.596 391.419L335.622 387.359L336.252 385.725L337.723 385.563L339.422 386.002L340.758 386.184L341.904 386.986L345.989 388.878L348.137 389.508L349.302 389.632L350.447 389.537L351.698 389.088L352.385 388.601L352.729 388.19L352.843 387.846L352.881 387.55L352.872 387.282L352.767 386.833L352.748 386.585L352.767 386.222L352.843 385.821L352.958 385.582L353.158 385.343L353.731 384.971L354.218 384.713L355.067 384.436L364.957 382.573L368.384 381.579L372.603 381.083L373.577 381.207L379.428 383.576L380.507 384.302L382.817 386.938L383.132 387.139L383.428 387.397L385.767 388.448Z" fill="white"/>
<path d="M297.372 190.656H298.05L299.129 190.188L299.558 190.131L300.093 190.446L300.981 191.42L301.286 191.65L302.04 191.478L303.042 190.608L303.682 190.627L304.322 190.79L304.808 190.704L305.572 190.312L305.419 190.207L305.439 189.844L305.553 189.452L305.677 189.223L305.916 189.195L306.517 189.424L306.775 189.414L308.016 188.946L308.837 189.013L309.667 189.271L310.937 189.328L311.634 189.128L312.121 188.86L312.56 188.736L313.142 189.003L314.116 191.707L314.851 193.102L315.672 193.904L316.76 194.181L318.259 193.952L318.803 193.732L319.06 193.541L319.385 193.446L320.168 193.531L320.645 193.732L322.115 194.697L324.54 194.124L325.065 194.133L326.373 194.649L327.05 194.697L327.957 195.041L330.009 196.359L330.41 196.369L330.64 195.948L331.165 196.082L332.129 196.627L332.835 196.608L333.16 196.254L333.265 195.824L333.351 195.624L334.315 195.71L337.112 196.397L338.314 196.178L339.88 194.869L340.729 194.659L341.006 194.926L341.197 195.967L341.627 196.33L342.228 196.378L342.62 196.197L342.982 195.958L343.45 195.853L344.471 196.006L346.342 196.713L346.915 197.009L346.944 197.152L347.03 197.448L347.326 197.725L348.433 197.926L348.796 198.04L349.158 198.069L349.636 197.878L350.39 197.677L352.385 197.83L353.416 197.754L354.962 198.26L355.64 198.279L356.337 197.821L356.28 198.91L356.595 199.168L357.12 199.091L357.712 199.12L358.819 199.684L359.458 199.712L360.146 197.964L360.881 198.996L361.52 200.687L361.664 201.546L363.134 201.766L363.955 201.489L364.508 202.11L377.748 205.425L380.287 206.428L380.039 206.648L378.579 207.431L378.226 207.679L375.553 211.52L375.095 211.911L373.09 213.277L372.746 213.631L372.498 214.003L372.317 214.404L372.269 214.873L372.565 216.344L372.498 216.86L372.279 217.242L371.668 217.672L371.515 218.035L371.534 218.522L371.858 219.888L371.887 220.279L371.83 221.56L371.983 222.84L371.954 223.613L371.849 224.244L371.668 224.788L371.553 225.543L371.677 226.174L371.973 226.67L372.555 227.435L372.679 227.941L372.66 228.419L372.46 229.441L372.603 229.918L372.899 230.224L373.252 230.434L373.577 230.692L373.987 231.17L374.512 232.039L375.018 233.386L375.505 236.128L375.896 237.35L375.83 238.057L375.534 238.516L374.149 239.423L373.739 239.901L373.395 240.436L373.233 241.267L373.29 241.496L373.529 241.573L373.901 241.544L374.751 241.563L375.915 241.449L376.25 241.324L376.526 241.152L377.013 240.675L377.3 240.522L377.701 240.598L378.101 240.875L378.655 241.468L379.056 241.792L379.447 242.05L379.829 242.156L380.24 242.203L380.612 242.156L380.946 242.07L382.158 241.515L382.874 241.353L383.17 241.191L383.399 240.942L383.896 239.92L384.545 239.07L384.726 238.745L384.85 238.353L385.051 237.035L385.156 236.634L385.375 236.032L385.442 235.898L385.519 235.784L385.9 235.383L386.435 234.981L386.75 234.819L387.065 234.695L390.377 234.102L390.721 233.997L391.332 233.692L391.599 233.491L391.838 233.243L392.248 232.679L392.983 231.418L393.184 231.132L393.423 230.883L393.709 230.692L394.043 230.549L394.769 230.386L395.084 230.253L395.37 230.071L396.954 228.839L397.25 228.686L397.585 228.61L397.909 228.619L398.291 228.715L399.207 229.087L399.503 229.45L399.723 229.842L408.705 253.332L408.753 253.753L408.639 254.507L408.562 256.943L408.495 257.335L408.362 257.66L408.133 257.899L407.827 258.042L407.464 258.051L407.13 257.956L406.519 257.66L406.214 257.631L405.966 257.784L405.794 258.071L405.727 258.453L405.737 258.873L405.851 259.599L405.794 259.895L405.546 260.077L405.24 260.22L404.973 260.44L404.792 260.717L404.658 261.061L404.572 261.433L404.524 261.901L404.534 262.474L404.782 263.439L404.801 263.993L404.677 264.366L404.419 264.566L402.004 265.875L401.451 266.267L401.202 266.487L400.973 266.716L400.801 267.022L400.525 267.671L400.305 267.929L399.732 268.273L399.475 268.493L399.255 268.732L399.064 269.018L398.921 269.352L398.835 269.725L398.635 271.397L398.472 272.065L398.415 272.247L398.291 272.486L398.176 272.648L397.88 272.906L395.847 273.756L395.064 274.712L394.559 275.581L393.709 276.231L392.869 277.043L391.38 277.807L390.912 277.864L390.53 277.835L390.129 277.759L389.576 277.74L387.075 278.418L384.287 279.841L383.848 280.004H383.247L382.34 280.099L380.345 280.558L379.4 280.663L378.827 280.596L378.407 280.109L377.891 279.966L377.128 279.899L375.495 280.08H374.665L374.054 280.023L372.555 279.192L371.916 279.087L371.018 279.049L367.381 279.249L364.231 278.504L362.714 278.323L362.169 278.38L361.759 278.533L361.215 279.039L360.814 279.335L360.413 279.459L359.878 279.507L358.294 279.402L357.626 279.498L356.767 279.708L355.554 280.271L355.086 280.367L354.686 280.348L354.189 280.176L353.702 280.061L353.063 279.985L352.605 280.042L352.232 280.176L351.946 280.367L351.698 280.587L351.249 280.854L348.481 281.743L344.004 282.449L341.083 282.421L340.434 282.497L339.956 282.66L338.897 283.242L337.637 283.73L336.959 283.873L336.491 283.911L336.338 283.873L332.176 284.178L331.756 284.14L331.069 283.968L330.773 283.863L329.169 282.965L328.845 282.822L328.549 282.65L327.795 282.335L326.182 282.115L326.43 281.446L326.42 280.95L326.182 280.252L325.771 278.208L325.714 277.663L325.523 277.291L324.664 276.603L324.244 275.848L323.137 274.826L322.764 274.148L322.583 273.174L322.726 272.706L323.089 272.266L323.614 271.349L323.938 270.633L324.053 270.241L324.043 268.77L323.814 268.359L322.774 267.327L322.115 266.802L320.588 264.786L320.034 264.28L319.624 263.984L317.275 262.837L316.015 262.016L315.013 261.013L314.603 259.895L314.631 258.472L314.545 257.325L314.058 256.485L312.894 255.95L310.402 255.931L309.41 255.558L309.009 254.278L308.417 253.485L305.629 252.129L304.694 251.212L306.049 248.508L305.725 247.085L304.904 245.996L302.804 244.028L302.708 243.359L303.319 242.748L304.15 242.136L304.694 241.458L304.761 240.646L304.503 240.016L303.873 239.137L303.472 237.952L303.281 237.599L302.804 237.045L302.222 236.787L300.79 236.863L300.226 236.586L299.835 235.832L299.52 234.236L299.176 233.567L298.642 233.224L297.21 232.841L296.609 232.555L295.253 230.472L295.94 228.438L298.031 226.976L300.885 226.565L303.596 227.033L304.99 227.005L305.582 226.336L305.305 224.874L304.618 223.747L303.023 221.894L302.117 219.802L301.315 212.121L300.962 210.564L300.799 209.81L301.191 209.313L302.355 208.233L302.078 207.46L299.176 203.801L298.556 201.537L297.974 200.83L296.8 200.562L295.215 200.486L294.251 200.142L293.649 199.311L293.153 197.783L292.933 196.178L293.583 191.965L293.124 190.876L292.685 188.039L293.182 187.427L293.191 187.418L293.21 187.427L293.926 188.029L294.48 189.099L295.263 189.94L297.372 190.656Z" fill="white"/>
<path d="M170.718 184.896L176.512 184.743L179.958 184.198L202.573 185.077L204.377 185.66L207.46 187.551L209.665 194.248L209.846 195.165L209.636 195.557L208.691 196.397L204.806 198.805L203.308 199.521L202.973 199.55L202.563 199.426L202.047 199.12L201.561 198.757L200.978 198.193L200.492 197.84L199.842 197.505L198.993 197.716L198.105 198.04L191.671 201.938L190.831 202.74L190.306 203.486L189.972 204.24L189.848 204.622L189.752 205.32L189.772 205.836L189.915 206.37L190.726 207.985L190.822 208.415L190.745 208.931L190.297 209.819L189.609 210.239L188.664 210.45L185.065 210.459L184.044 210.622L183.118 211.099L182.736 211.663L182.622 212.437L183.004 215.579L183.013 215.856L182.889 216.898L182.498 217.748L170.384 235.87L169.792 237.207L169.582 238.306V240.054L169.429 240.952L168.847 243.101L168.723 243.885L168.962 247.314L168.818 250.428L169.267 253.657L169.133 254.784L168.809 256.189L167.1 260.831L167.119 261.28L167.253 261.758L167.768 262.981L167.95 263.735L167.749 264.891L167.062 266.878L164.236 272.648L163.454 275.094L162.881 277.768L162.299 283.844L162.27 283.892L161.774 284.226L155.54 287.589L154.061 288.172L151.875 288.592L131.599 289.729L130.74 289.91L129.89 290.264L127.934 291.343L125.7 292.308L121.194 293.043L120.335 293.321L119.295 293.865L118.731 294.448L118.378 295.05L117.949 297.486L117.71 298.269L116.889 299.711L116.698 300.151L116.65 300.609L116.956 309.398V309.408L115.142 309.455L113.834 309.293L112.04 308.204L109.94 306.465L107.639 305.328L105.243 306.026L103.277 304.755L102.685 304.153L101.778 302.635L101.406 302.243L101.291 301.326L100.537 299.902L99.5252 298.603L97.8737 297.657L96.8046 295.862L96.2319 295.231L96.7951 294.104L97.0146 292.556L96.7951 291.171L96.0219 290.569L94.9336 290.197L93.9981 289.347L93.1676 288.401L92.3849 287.761L91.9171 287.694L90.6666 287.789L90.2466 287.761L89.6739 287.36L88.4615 286.118L87.8983 285.85L86.6001 285.468L85.951 284.532L85.5787 283.452L85.0823 282.583L81.0158 280.768L79.5744 280.692L78.7057 280.443L78.0757 280.004L77.3406 279.326L76.3861 278.647L75.3742 278.217L74.2287 277.988L72.8732 277.931L72.3004 277.558L71.7181 275.953L70.7158 275.304L70.7731 274.616L71.0595 273.833L71.3554 273.269L70.2385 273.24L69.5035 273.107L68.9403 272.82L65.7806 269.467L64.8738 269.028H61.9146L61.0745 268.789L60.5495 268.464L59.5663 267.365L58.6785 266.744L57.7812 266.343L57.0748 265.751L56.7884 264.566L56.7407 263.305L56.5689 262.503L56.1775 261.844L55.5093 261.032L54.8315 260.44L53.4188 259.628L52.6837 258.959L51.271 256.886L50.765 256.38L43.787 252.1L41.5533 249.626L40.6942 248.317L40.6846 248.011L40.5032 247.696L40.8183 246.11L40.6846 245.461L39.9878 244.429L38.8136 241.926L37.8972 240.541L36.5704 239.137L35.9976 238.353L35.759 237.522L35.463 237.513L34.8426 237.092L34.308 236.596L34.2507 236.357L33.8021 236.137L33.5634 235.621L33.3916 235.01L33.1625 234.504L31.4442 232.603L31.0529 231.886L30.7856 231.122L30.3656 230.539L29.5255 230.291L29.2678 229.928L30.041 228.332L28.8478 227.568L28.8764 226.68L29.306 225.19L28.9814 224.483L28.7523 224.368L28.38 224.416L27.5973 224.215L26.0508 223.499L25.2299 222.82L25.2203 221.97L26.1081 220.738L26.4518 219.601L25.9554 218.388L24.5712 216.764L24.2276 216.668L23.8076 216.697L23.4448 216.602L23.2921 216.114L23.3016 215.36L23.2444 215.016L23.0725 214.701L22.6143 214.414L21.9175 214.204L19.6838 213.908L19.2256 213.841L18.0037 213.373L13.6317 210.335L12.5721 209.265L12.133 208.243L11.5984 207.775L9.07833 206.982L8.28603 206.628L6.76824 204.622L5.69911 203.724L4.22905 203.342L3.51311 203.256L2.67307 203.008L1.90941 202.568L1.44166 201.957L1.56576 201.393L1.97623 200.801L2.22442 200.094L1.83304 199.187H2.2626L1.93804 198.661L1.49894 198.222L0.964368 197.916L0.334343 197.792L1.76622 194.41L3.5322 188.01L5.19318 181.992L7.92329 172.821L10.2047 165.179L13.1258 155.406L15.264 148.261L17.5455 140.427L19.741 132.919L21.7838 125.964L23.798 119.057L24.0367 114.654V114.615L23.9126 104.852L23.8362 98.4042L23.7694 92.5197L23.693 86.425L24.2276 84.6386L26.509 81.1614L27.8741 79.1648L29.1819 77.2638L31.9788 73.2038L34.7853 69.1343L37.5822 65.0744L40.3791 61.0049L41.4196 59.4191L42.4601 57.8238L43.5006 56.238L44.5507 54.6427L45.3525 52.9136L45.7725 52.0347L46.603 52.7703L52.4069 56.4959L169.353 91.2396L173.687 93.0929L175.329 94.3538L174.059 99.5697L174.069 99.8658L174.155 100.267L174.384 100.659L175.691 102.369L176.426 103.706L176.78 104.594L177.171 106.171L177.2 106.792L177.181 107.346L176.942 109.113L176.99 109.657L177.162 110.154L178.441 112.437L181.801 117.137L182.154 117.758L182.755 119.201L185.333 136.453L185.352 137.093L185.304 137.666L185.209 138.125L185.104 138.478L184.951 138.765L184.75 138.994L184.416 139.281L178.087 143.131L177.133 143.885L176.216 144.888L175.844 145.49L175.567 146.159L169.926 171.493L169.038 174.177L168.904 175.047V175.696L169.916 181.915L169.983 183.979L170.155 184.666L170.718 184.896Z" fill="white"/>
<path d="M281.564 58.7122L281.593 59.7821L281.965 60.0114L282.49 59.9349L282.929 60.0782L283.369 60.5368L283.96 61.301L284.084 61.9983L281.784 62.8008L281.326 63.9185L281.717 65.1603L282.929 66.0105L283.311 65.9055L283.607 65.5138L283.989 65.1317L284.638 65.0935L285.049 65.3418L285.555 65.8577L285.85 66.4977L285.249 68.3319L285.392 70.0323L285.822 71.6849L286.309 72.8122L287.301 73.9681L288.647 75.0284L290.06 75.7831L291.244 76.0792L292.17 76.6142L291.998 77.8083L291.015 79.738L290.881 81.0945L290.948 82.8044L291.206 84.4189L291.922 86.0238L291.969 86.7784L291.903 88.2305L292.074 89.1571L292.895 90.4658L293.191 91.211L293.163 91.9274L292.695 93.217L292.723 93.9908L293.105 94.7455L293.697 95.2136L294.241 95.1372L294.814 92.8063L295.635 92.2904L296.637 92.4528L297.496 93.0738L297.754 93.4845L298.117 94.478L298.356 94.9079L298.747 95.2805L299.711 95.9587L300.255 96.5032L300.417 97.1433L299.94 97.6496L299.205 97.9839L297.85 98.2705L297.353 98.6431L296.647 99.436L295.702 100.143L295.234 100.745L295.644 101.155L297.267 101.308L298.537 101.576L299.606 102.283L300.293 103.295L300.456 104.509L299.806 105.206L297.22 106.648L296.647 107.508L296.838 108.263L297.267 108.588L297.697 108.712L297.888 108.874H298.203L299.654 110.078L301.086 111.635H301.506L301.773 110.46L302.928 111.473L303.023 112.944L302.441 114.491L300.742 117.128L300.79 118.083L301.773 120.127L302.155 123.117L301.907 126.27L301.028 129.117L299.606 131.228L297.83 132.537L297.496 133.062L297.458 133.903L297.773 134.418L298.165 134.772L298.356 135.144L298.871 135.851L299.873 136.157L300.551 136.816L300.064 138.574L295.893 145.051L294.938 147.343L294.69 148.767L294.757 150.257L295.272 151.451L296.418 151.938L297.01 152.521L296.561 153.859L295.759 155.397L295.329 156.543L295.587 157.689L296.246 158.893L297.029 159.867L297.697 160.259L298.04 160.909L295.329 165.417L295.358 166.717L295.587 167.949L295.53 169.239L294.699 170.71L294.27 171.875L294.843 172.85L295.721 173.958L296.179 175.515L295.893 176.355L294.432 179.107L293.85 179.709L293.707 180.358L292.332 184.323L292.237 185.249L292.256 186.271L292.37 186.969L293.191 187.418L293.182 187.427L292.685 188.039L293.124 190.876L293.583 191.965L292.933 196.178L293.153 197.783L293.649 199.311L294.251 200.142L295.215 200.486L296.8 200.562L297.974 200.83L298.556 201.537L299.176 203.801L302.078 207.46L302.355 208.233L301.191 209.313L300.799 209.81L300.962 210.564L279.35 200.935L278.462 200.352L277.956 199.664L277.517 196.445L276.629 195.776L275.025 195.327L245.615 193.302L242.35 193.665L228.995 192.538L219.335 192.901L218.323 192.825L216.844 192.433L214.486 191.468L207.46 187.551L204.377 185.66L202.573 185.077L179.958 184.198L176.512 184.743L170.718 184.896L170.155 184.666L169.983 183.979L169.916 181.915L168.904 175.696V175.047L169.038 174.177L169.926 171.493L175.567 146.159L175.844 145.49L176.216 144.888L177.133 143.885L178.087 143.131L184.416 139.281L184.75 138.994L184.951 138.765L185.104 138.478L185.209 138.125L185.304 137.666L185.352 137.093L185.333 136.453L182.755 119.201L182.154 117.758L181.801 117.137L178.441 112.437L177.162 110.154L176.99 109.657L176.942 109.113L177.181 107.346L177.2 106.792L177.171 106.171L176.78 104.594L176.426 103.706L175.691 102.369L174.384 100.659L174.155 100.267L174.069 99.8658L174.059 99.5697L175.329 94.3538L173.687 93.0929L169.353 91.2396L52.4069 56.4959L46.603 52.7703L45.7725 52.0347L46.1639 51.2036L46.9753 49.4746L47.7867 47.7551L49.5527 42.8544L51.3091 37.9538L53.0656 33.0628L54.8316 28.1717L56.0057 24.9046L56.5116 24.1118L57.5139 23.6914L63.0887 22.8412L64.4347 22.6311L67.3843 22.1725L70.3435 21.7235L71.6895 21.5134L92.8813 16.8994L114.073 12.2758L135.265 7.66176L156.457 3.04773L165.888 0.993872L171.024 0.927002L182.822 0.774156L194.611 0.621311L206.41 0.468465L218.209 0.306067L223.287 0.239197L224.538 0.554441L226.409 1.89184L228.203 3.18147L231.353 5.13981L237.195 8.77944L243.037 12.4191L248.879 16.0492L254.721 19.6888L260.564 23.3284L266.396 26.9681L272.238 30.6172L278.08 34.2569L280.533 35.7949L281.211 36.5591L281.412 37.5144L281.221 39.7116L281.354 41.8514L282.414 45.663L282.624 47.7551L282.462 49.2357L282.548 52.0538L282.443 53.439L281.517 56.9735L281.564 58.7122Z" fill="#FAFAFA"/>
<path d="M316.703 414.871L314.001 412.741L313.973 411.9L312.073 407.028L312.044 406.999L313.39 405.318L314.097 404.669L315.032 404.134L316.808 403.57L317.59 403.169L319.118 404.688L320.053 406.407L320.359 408.996L319.738 411.757L318.182 413.486L316.703 414.871Z" fill="white"/>
</svg>
