<svg width="80" height="80" viewBox="0 0 80 80" fill="none" xmlns="http://www.w3.org/2000/svg">
<path d="M27.61 67.5433C52.7667 67.5433 66.53 46.68 66.53 28.62C66.53 28.0333 66.53 27.4466 66.5033 26.86C69.1836 24.9177 71.4964 22.5135 73.3333 19.76C70.8322 20.8651 68.1812 21.5941 65.4667 21.9233C68.3268 20.2109 70.4683 17.5187 71.4933 14.3466C68.805 15.9415 65.8619 17.0612 62.7933 17.6566C61.516 16.2919 59.972 15.204 58.257 14.4603C56.542 13.7167 54.6926 13.3331 52.8233 13.3333C49.1942 13.336 45.7145 14.7788 43.1483 17.345C40.5822 19.9111 39.1393 23.3909 39.1367 27.02C39.1367 28.0866 39.27 29.1266 39.4833 30.14C34.043 29.8668 28.7209 28.4525 23.8626 25.9889C19.0043 23.5253 14.7185 20.0675 11.2833 15.84C9.53761 18.8552 9.0047 22.4217 9.79279 25.8155C10.5809 29.2092 12.6309 32.176 15.5267 34.1133C13.3569 34.0382 11.2353 33.4535 9.33334 32.4066V32.5933C9.33627 35.751 10.4291 38.8109 12.4272 41.256C14.4253 43.701 17.2062 45.3815 20.3 46.0133C19.1275 46.3367 17.9163 46.4982 16.7 46.4933C15.8167 46.4933 14.9633 46.4133 14.1333 46.2533C15.0055 48.9726 16.7067 51.3508 18.9986 53.0545C21.2905 54.7582 24.0581 55.7019 26.9133 55.7533C22.0685 59.5618 16.0826 61.6284 9.92001 61.62C8.82667 61.62 7.73334 61.5666 6.66667 61.4333C12.9224 65.4253 20.1891 67.5453 27.61 67.5433" fill="#399CF7"/>
</svg>
